<svg width="192" height="32" viewBox="0 0 192 32" fill="none" xmlns="http://www.w3.org/2000/svg">
<path opacity="0.65" d="M56.9822 19.9821C56.6591 19.9821 56.3379 20.2172 55.9521 20.5717C54.6908 21.9193 53.4569 22.595 51.2242 22.595C47.7537 22.595 44.6103 19.4826 44.6103 13.8377C44.6103 9.99086 45.9617 7.6992 48.5802 7.6992C52.3406 7.6992 52.0468 12.6938 55.2489 12.6938C56.569 12.6938 57.3348 11.691 57.3348 10.6666C57.3348 8.58061 54.6908 5.64062 49.5771 5.64062C43.8759 5.64062 39.9961 9.78324 39.9961 15.8669C39.9961 22.3325 44.2284 26.4477 49.8709 26.4477C54.395 26.4477 56.7746 24.0385 57.5972 22.215C57.7421 21.8056 57.8596 21.4217 57.8596 20.9536C57.8596 20.3954 57.5365 19.9821 56.9803 19.9821H56.9822Z" fill="#666666"/>
<path opacity="0.65" d="M76.3519 22.4503L71.0346 7.34688C70.6214 6.08157 70.0945 5.55469 68.7118 5.55469C67.0099 5.55469 66.5966 6.11291 65.9797 7.72883L60.1042 22.7147C59.6322 24.0388 57.8676 23.8625 57.8676 25.0377C57.8676 25.6547 58.3082 26.0092 59.1915 26.0092H62.803C63.7744 26.0092 64.1544 25.7154 64.1544 25.1259C64.1544 24.0995 62.3349 24.219 62.3349 23.1887C62.3349 23.0712 62.3623 22.9537 62.3937 22.8068L63.3925 20.2487H70.9739L71.7945 22.7754C72.2939 24.217 70.4745 23.8057 70.4745 25.0397C70.4745 25.6567 70.9151 26.0112 71.912 26.0112H76.7887C77.8189 26.0112 78.1988 25.5705 78.1988 25.0671C78.1988 23.8057 77.1138 24.4815 76.348 22.4542L76.3519 22.4503ZM64.1896 18.1902L67.333 10.1106C67.3918 9.87554 67.5955 9.90297 67.6875 10.138L70.3002 18.1902H64.1896Z" fill="#666666"/>
<path opacity="0.65" d="M93.5964 6.93325C93.3614 6.28885 93.1283 6.02051 92.3625 6.02051H78.1712C77.4054 6.02051 77.1723 6.28689 76.9373 6.93325C76.671 7.78528 76.2029 9.75572 76.1441 10.6665C76.0854 11.638 76.5574 12.018 77.1155 12.018C78.2006 12.018 78.3768 10.929 79.1426 9.34244C79.6107 8.40227 80.2589 8.08104 81.2578 8.08104H82.1372C82.9617 8.08104 83.0812 8.31609 83.0812 9.61078V22.8045C83.0812 24.0384 81.5516 24.0659 81.5516 25.0648C81.5516 25.8306 82.2272 26.0089 83.1947 26.0089H87.3409C88.3397 26.0089 88.9841 25.8326 88.9841 25.0648C88.9841 24.0659 87.4584 24.0384 87.4584 22.8045V9.49325C87.4584 8.31804 87.6033 8.083 88.3985 8.083H89.2505C90.308 8.083 90.9524 8.40619 91.3931 9.34439C92.1863 10.9329 92.3371 12.02 93.4201 12.02C93.9783 12.02 94.4503 11.638 94.3915 10.6685C94.3328 9.75572 93.8921 7.78724 93.5983 6.93521L93.5964 6.93325Z" fill="#666666"/>
<path opacity="0.65" d="M110.171 20.3953C109.082 20.3953 108.906 21.3629 108.203 22.6869C107.7 23.5997 107.114 23.9483 106.057 23.9483H102.559C101.824 23.9483 101.528 23.5977 101.528 22.7731V16.8657H103.969C105.026 16.8657 105.438 17.279 105.643 18.0135C105.878 18.7755 105.964 19.3376 106.642 19.3376C107.435 19.3376 107.645 18.3661 107.645 15.8668C107.645 13.3675 107.378 12.3725 106.583 12.3725C105.908 12.3725 105.821 12.8994 105.643 13.6613C105.44 14.4272 105.058 14.8091 103.969 14.8091H101.528V9.25625C101.528 8.43556 101.822 8.08104 102.559 8.08104H105.616C106.673 8.08104 107.232 8.63927 107.612 9.34244C108.346 10.6352 108.405 11.638 109.462 11.638C110.021 11.638 110.579 11.166 110.375 10.1357L109.699 6.93325C109.554 6.25751 109.227 6.02051 108.465 6.02051H97.2687C96.2698 6.02051 95.6255 6.19679 95.6255 6.96459C95.6255 7.93218 97.1512 7.99094 97.1512 9.22492V22.8045C97.1512 24.0384 95.6255 24.0659 95.6255 25.0648C95.6255 25.8306 96.2698 26.0089 97.2687 26.0089H109.2C109.934 26.0089 110.257 25.8013 110.402 25.0961L111.078 21.8937C111.313 20.836 110.728 20.3972 110.171 20.3972V20.3953Z" fill="#666666"/>
<path opacity="0.65" d="M130.324 23.8886C129.676 23.5067 129.149 23.2128 128.795 22.5371L126.09 17.4563C127.823 16.8119 129.968 15.0745 129.968 11.7859C129.968 8.49726 126.824 6.02344 121.153 6.02344H114.425C113.426 6.02344 112.778 6.19972 112.778 6.96752C112.778 7.93511 114.308 7.99387 114.308 9.22785V22.8074C114.308 24.0414 112.778 24.0688 112.778 25.0677C112.778 25.8336 113.454 26.0118 114.425 26.0118H118.567C119.539 26.0118 120.215 25.8355 120.215 25.0677C120.215 24.0688 118.685 24.0414 118.685 22.8074V18.2515L121.887 18.2202L124.355 22.9523C124.768 23.8925 123.325 23.9826 123.325 24.9208C123.325 25.9198 124.208 26.0099 125.148 26.0099H129.611C130.287 26.0099 131.08 25.7435 131.08 24.9208C131.08 24.3626 130.73 24.1589 130.318 23.8906L130.324 23.8886ZM120.685 16.1616H118.689V9.51969C118.689 8.66766 118.924 8.08201 119.837 8.08201H120.336C123.861 8.08201 125.181 10.2875 125.181 12.4597C125.154 14.8101 123.507 16.189 120.687 16.1616H120.685Z" fill="#666666"/>
<path d="M144.79 15.2812C147.23 14.4566 148.288 12.8133 148.288 10.9036C148.288 8.37688 146.055 5.99512 140.826 5.99512H134.447C133.448 5.99512 132.804 6.1714 132.804 6.93529C132.804 7.93421 134.33 7.96555 134.33 9.22695V22.8065C134.33 24.0405 132.804 24.0679 132.804 25.0668C132.804 25.8327 133.476 26.0109 134.447 26.0109H141.999C147.461 26.0109 149.402 23.6017 149.402 20.4267C149.402 17.5768 147.375 15.7846 144.788 15.2852L144.79 15.2812ZM138.443 9.34251C138.443 8.608 138.619 8.08112 139.414 8.08112H140.472C142.645 8.08112 144.028 9.61085 144.028 11.548C144.028 13.8396 142.526 14.6329 140.413 14.6643H138.444V9.34251H138.443ZM141.382 23.9465H139.473C138.621 23.9465 138.443 23.4196 138.443 22.6851V16.7189H140.47C143.202 16.7189 144.815 17.7766 144.815 20.5109C144.815 22.6537 143.2 23.9465 141.38 23.9465H141.382Z" fill="#666666"/>
<path d="M161.478 5.58204C155.099 5.58204 151.018 10.0185 151.018 15.9572C151.018 21.8959 155.043 26.4459 161.478 26.4459C167.914 26.4459 171.704 22.0957 171.704 16.1335C171.704 10.6942 168.443 5.58008 161.478 5.58008V5.58204ZM162.536 24.3012C158.394 24.3012 155.718 18.3938 155.718 13.7811C155.718 9.96166 157.452 7.72875 160.305 7.72875C164.33 7.72875 166.974 13.55 166.974 18.2763C166.974 21.9782 165.299 24.3012 162.538 24.3012H162.536Z" fill="#666666"/>
<path d="M188.717 22.8916L183.369 15.2821L188.191 8.72642C188.866 7.75883 189.951 7.84697 189.951 6.9068C189.951 6.34858 189.569 6.02344 188.717 6.02344H185.456C184.605 6.02344 184.254 6.23106 184.254 6.78928C184.254 7.28875 184.577 7.46503 184.898 7.66873C185.456 8.05068 185.897 8.1682 185.398 9.02022L182.137 13.5154L178.993 9.05156C178.79 8.75776 178.731 8.52076 178.731 8.34448C178.731 7.81759 179.465 7.66873 179.465 6.99299C179.465 6.376 179.052 6.11354 178.028 6.11354H173.265C172.207 6.11354 171.796 6.40734 171.796 7.08504C171.796 8.26026 173.179 8.02521 173.882 8.936L178.993 16.191L173.414 23.3049C172.707 24.2764 171.622 24.2177 171.622 25.1559C171.622 25.6867 171.945 26.0079 172.855 26.0079H176.144C176.968 26.0079 177.35 25.8003 177.35 25.242C177.35 24.7426 177.023 24.5663 176.702 24.3626C176.144 23.9807 175.703 23.777 176.203 23.0111L180.227 17.9577L183.96 23.2755C184.046 23.4518 184.136 23.6026 184.136 23.7476C184.136 24.2196 183.429 24.3058 183.429 25.0403C183.429 25.6573 183.843 26.0118 184.781 26.0118H189.513C190.601 26.0118 190.923 25.5711 190.923 25.0129C190.923 23.7201 189.571 24.1001 188.717 22.8936V22.8916Z" fill="#666666"/>
<path d="M17.955 14.3861V8.72352C17.955 7.83624 17.2323 7.11152 16.3393 7.11152C15.4462 7.11152 14.7235 7.83428 14.7235 8.72352V23.2765C14.7235 24.1677 15.4462 24.8925 16.3393 24.8925C17.2323 24.8925 17.955 24.1697 17.955 23.2765V17.6179H26.735C29.1871 17.6179 31.1789 19.6138 31.1789 22.0661V23.6154C31.1789 26.0638 29.1871 28.0557 26.735 28.0557H11.5194C7.73161 28.0557 4.65088 24.9747 4.65088 21.1905V10.8193C4.65088 7.03513 7.73161 3.94629 11.5194 3.94629H26.735C29.1871 3.94629 31.1789 5.94611 31.1789 8.39446V9.93986C31.1789 12.3961 29.1871 14.388 26.735 14.388H17.955V14.3861Z" fill="#1F8152"/>
<path d="M26.7348 14.3866C29.1869 14.3866 31.1787 12.3946 31.1787 9.93841V8.393C31.1787 5.94465 29.1869 3.94483 26.7348 3.94483H11.5192C7.73142 3.94483 4.65068 7.03368 4.65068 10.8179V21.1891C4.65068 24.9733 7.73142 28.0543 11.5192 28.0543H26.7348C29.1869 28.0543 31.1787 26.0623 31.1787 23.6139V22.0646C31.1787 19.6123 29.1869 17.6164 26.7348 17.6164H17.9548V23.2751C17.9548 24.1663 17.2321 24.891 16.3391 24.891C15.446 24.891 14.7233 24.1682 14.7233 23.2751V8.72206C14.7233 7.83478 15.446 7.11007 16.3391 7.11007C17.2321 7.11007 17.9548 7.83282 17.9548 8.72206V14.3846H26.7348V14.3866ZM16.341 6.73008C15.2403 6.73008 14.3414 7.62128 14.3414 8.72206V23.2751C14.3414 24.3759 15.2423 25.271 16.341 25.271C17.4397 25.271 18.3407 24.3759 18.3407 23.2751V18.0003H26.7348C28.9793 18.0003 30.7987 19.82 30.7987 22.0646V23.6139C30.7987 25.8508 28.9793 27.6743 26.7348 27.6743H11.5192C7.94293 27.6743 5.03455 24.7656 5.03455 21.1891V10.8179C5.03455 7.2413 7.94293 4.32873 11.5192 4.32873H26.7348C28.9793 4.32873 30.7987 6.15227 30.7987 8.393V9.93841C30.7987 12.1831 28.9793 14.0027 26.7348 14.0027H18.3407V8.72402C18.3407 7.62324 17.4397 6.73204 16.341 6.73204V6.73008ZM26.7348 14.3866C29.1869 14.3866 31.1787 12.3946 31.1787 9.93841V8.393C31.1787 5.94465 29.1869 3.94483 26.7348 3.94483H11.5192C7.73142 3.94483 4.65068 7.03368 4.65068 10.8179V21.1891C4.65068 24.9733 7.73142 28.0543 11.5192 28.0543H26.7348C29.1869 28.0543 31.1787 26.0623 31.1787 23.6139V22.0646C31.1787 19.6123 29.1869 17.6164 26.7348 17.6164H17.9548V23.2751C17.9548 24.1663 17.2321 24.891 16.3391 24.891C15.446 24.891 14.7233 24.1682 14.7233 23.2751V8.72206C14.7233 7.83478 15.446 7.11007 16.3391 7.11007C17.2321 7.11007 17.9548 7.83282 17.9548 8.72206V14.3846H26.7348V14.3866ZM16.341 6.73008C15.2403 6.73008 14.3414 7.62128 14.3414 8.72206V23.2751C14.3414 24.3759 15.2423 25.271 16.341 25.271C17.4397 25.271 18.3407 24.3759 18.3407 23.2751V18.0003H26.7348C28.9793 18.0003 30.7987 19.82 30.7987 22.0646V23.6139C30.7987 25.8508 28.9793 27.6743 26.7348 27.6743H11.5192C7.94293 27.6743 5.03455 24.7656 5.03455 21.1891V10.8179C5.03455 7.2413 7.94293 4.32873 11.5192 4.32873H26.7348C28.9793 4.32873 30.7987 6.15227 30.7987 8.393V9.93841C30.7987 12.1831 28.9793 14.0027 26.7348 14.0027H18.3407V8.72402C18.3407 7.62324 17.4397 6.73204 16.341 6.73204V6.73008ZM34.7999 9.93645V8.39104C34.7999 8.25002 34.7921 8.11291 34.7843 7.97385C34.5767 3.83123 31.2903 0.55435 27.152 0.336936C27.0149 0.333019 26.8778 0.329102 26.7348 0.329102H11.5192C5.73766 0.329102 1.03528 5.03386 1.03528 10.8139V21.1852C1.03528 26.9672 5.73961 31.6661 11.5192 31.6661H26.7348C26.8758 31.6661 27.0129 31.6622 27.1481 31.6543C31.2903 31.4467 34.5747 28.16 34.7843 24.0213C34.7921 23.8842 34.7999 23.751 34.7999 23.6081V22.0587C34.7999 19.7162 33.7972 17.5303 32.0404 15.9907C33.7972 14.461 34.7999 12.2771 34.7999 9.93057V9.93645ZM31.4391 15.9966C33.2468 17.4069 34.4102 19.6006 34.4102 22.0646V23.6139C34.4102 23.7432 34.4063 23.8725 34.4024 24.0037C34.3906 24.1252 34.3867 24.2427 34.375 24.37C34.0244 27.876 31.3138 30.6985 27.8551 31.2078C27.6161 31.243 27.3752 31.2704 27.1324 31.2783C26.9992 31.2861 26.87 31.29 26.7348 31.29H11.7346C6.03731 31.29 1.41523 26.6675 1.41523 20.9697V11.0294C1.41523 5.33158 6.03731 0.716921 11.7346 0.716921H26.7348C26.868 0.716921 26.9973 0.716921 27.1324 0.724756C27.2499 0.732591 27.3752 0.740425 27.4986 0.752177C31.1258 1.11062 34.0185 4.00555 34.375 7.63303C34.3867 7.75447 34.3906 7.87199 34.4024 7.99539C34.4063 8.12858 34.4102 8.25785 34.4102 8.393V9.93841C34.4102 12.4024 33.2468 14.6001 31.4391 15.9986V15.9966ZM26.7348 3.94287H11.5192C7.73142 3.94287 4.65068 7.03172 4.65068 10.8159V21.1871C4.65068 24.9713 7.73142 28.0523 11.5192 28.0523H26.7348C29.1869 28.0523 31.1787 26.0603 31.1787 23.612V22.0627C31.1787 19.6104 29.1869 17.6145 26.7348 17.6145H17.9548V23.2731C17.9548 24.1643 17.2321 24.889 16.3391 24.889C15.446 24.889 14.7233 24.1663 14.7233 23.2731V8.7201C14.7233 7.83282 15.446 7.10811 16.3391 7.10811C17.2321 7.10811 17.9548 7.83086 17.9548 8.7201V14.3827H26.7348C29.1869 14.3827 31.1787 12.3907 31.1787 9.93449V8.38909C31.1787 5.94073 29.1869 3.94092 26.7348 3.94092V3.94287ZM30.7987 9.93645C30.7987 12.1811 28.9793 14.0007 26.7348 14.0007H18.3407V8.72206C18.3407 7.62128 17.4397 6.73008 16.341 6.73008C15.2423 6.73008 14.3414 7.62128 14.3414 8.72206V23.2751C14.3414 24.3759 15.2423 25.271 16.341 25.271C17.4397 25.271 18.3407 24.3759 18.3407 23.2751V18.0003H26.7348C28.9793 18.0003 30.7987 19.82 30.7987 22.0646V23.6139C30.7987 25.8508 28.9793 27.6743 26.7348 27.6743H11.5192C7.94293 27.6743 5.03455 24.7656 5.03455 21.1891V10.8179C5.03455 7.2413 7.94293 4.32873 11.5192 4.32873H26.7348C28.9793 4.32873 30.7987 6.15227 30.7987 8.393V9.93841V9.93645ZM26.7348 14.3846C29.1869 14.3846 31.1787 12.3926 31.1787 9.93645V8.39104C31.1787 5.94269 29.1869 3.94287 26.7348 3.94287H11.5192C7.73142 3.94287 4.65068 7.03172 4.65068 10.8159V21.1871C4.65068 24.9713 7.73142 28.0523 11.5192 28.0523H26.7348C29.1869 28.0523 31.1787 26.0603 31.1787 23.612V22.0627C31.1787 19.6104 29.1869 17.6145 26.7348 17.6145H17.9548V23.2731C17.9548 24.1643 17.2321 24.889 16.3391 24.889C15.446 24.889 14.7233 24.1663 14.7233 23.2731V8.7201C14.7233 7.83282 15.446 7.10811 16.3391 7.10811C17.2321 7.10811 17.9548 7.83086 17.9548 8.7201V14.3827H26.7348V14.3846ZM16.341 6.72812C15.2403 6.72812 14.3414 7.61932 14.3414 8.7201V23.2731C14.3414 24.3739 15.2423 25.269 16.341 25.269C17.4397 25.269 18.3407 24.3739 18.3407 23.2731V17.9984H26.7348C28.9793 17.9984 30.7987 19.818 30.7987 22.0627V23.612C30.7987 25.8488 28.9793 27.6723 26.7348 27.6723H11.5192C7.94293 27.6723 5.03455 24.7637 5.03455 21.1871V10.8159C5.03455 7.23934 7.94293 4.32678 11.5192 4.32678H26.7348C28.9793 4.32678 30.7987 6.15031 30.7987 8.39104V9.93645C30.7987 12.1811 28.9793 14.0007 26.7348 14.0007H18.3407V8.72206C18.3407 7.62128 17.4397 6.73008 16.341 6.73008V6.72812ZM26.7348 14.3846C29.1869 14.3846 31.1787 12.3926 31.1787 9.93645V8.39104C31.1787 5.94269 29.1869 3.94287 26.7348 3.94287H11.5192C7.73142 3.94287 4.65068 7.03172 4.65068 10.8159V21.1871C4.65068 24.9713 7.73142 28.0523 11.5192 28.0523H26.7348C29.1869 28.0523 31.1787 26.0603 31.1787 23.612V22.0627C31.1787 19.6104 29.1869 17.6145 26.7348 17.6145H17.9548V23.2731C17.9548 24.1643 17.2321 24.889 16.3391 24.889C15.446 24.889 14.7233 24.1663 14.7233 23.2731V8.7201C14.7233 7.83282 15.446 7.10811 16.3391 7.10811C17.2321 7.10811 17.9548 7.83086 17.9548 8.7201V14.3827H26.7348V14.3846ZM16.341 6.72812C15.2403 6.72812 14.3414 7.61932 14.3414 8.7201V23.2731C14.3414 24.3739 15.2423 25.269 16.341 25.269C17.4397 25.269 18.3407 24.3739 18.3407 23.2731V17.9984H26.7348C28.9793 17.9984 30.7987 19.818 30.7987 22.0627V23.612C30.7987 25.8488 28.9793 27.6723 26.7348 27.6723H11.5192C7.94293 27.6723 5.03455 24.7637 5.03455 21.1871V10.8159C5.03455 7.23934 7.94293 4.32678 11.5192 4.32678H26.7348C28.9793 4.32678 30.7987 6.15031 30.7987 8.39104V9.93645C30.7987 12.1811 28.9793 14.0007 26.7348 14.0007H18.3407V8.72206C18.3407 7.62128 17.4397 6.73008 16.341 6.73008V6.72812Z" fill="#1F8152"/>
</svg>
