<svg xmlns="http://www.w3.org/2000/svg" width="153" height="47" viewBox="0 0 153 47" fill="none">
<path d="M26.6555 8.99846L27.4535 10.0905L27.4974 10.0415C27.2294 9.68136 26.9507 9.32983 26.6555 8.99846ZM2.88625 3.18677V3.7227L2.89749 3.18677H2.88625ZM23.7308 38.4084C23.3537 38.2874 22.9491 38.1722 22.5282 38.0482C21.5386 37.7629 20.4287 37.4517 19.2261 37.1349C14.5194 35.893 8.3694 34.51 2.23038 33.8645L2.37258 27.4305L2.39441 26.4565L2.43827 24.4828C2.43827 24.4828 2.43827 24.4828 2.43827 24.48L2.88625 3.7227L2.89749 3.18677L2.90267 3.02253C4.13813 2.83524 6.59283 2.53559 9.51733 2.54136C12.4204 2.53559 15.7877 2.83524 18.8709 3.79763C20.4127 4.27305 21.8831 4.91846 23.1948 5.76558C24.5126 6.61269 25.677 7.65865 26.6226 8.95236L26.6555 8.99846L27.4535 10.0905L27.4974 10.0415L28.3501 9.00422C28.536 8.77373 28.7329 8.54896 28.9462 8.33576C28.7657 8.10524 28.5796 7.88339 28.3882 7.6644C28.3722 7.63559 28.3501 7.60964 28.3229 7.58083C28.055 7.27541 27.7818 6.97864 27.4918 6.69051C26.5461 5.62442 25.5348 4.6678 24.376 3.92441C22.1072 2.46931 19.5269 1.58473 16.9577 1.05456C14.3829 0.524394 11.808 0.354399 9.51733 0.354399C5.46132 0.354399 2.30688 0.896106 1.7219 0.999832C1.66161 1.01712 1.62919 1.02288 1.62357 1.02288L0.759813 1.18422L0.737987 2.18983L0.273368 23.7395L0.240521 25.1888L0 35.8556L1.01676 35.9421C7.29818 36.5154 13.776 37.9531 18.6632 39.2497C21.1123 39.8952 23.1624 40.5061 24.5999 40.9556C25.3161 41.1804 25.8792 41.3647 26.2674 41.4916C26.4586 41.5577 26.6062 41.6067 26.7047 41.6385C26.8029 41.6731 26.8467 41.6873 26.8467 41.6873L27.2074 41.8142L27.5685 41.6873C27.5685 41.6873 27.6119 41.6731 27.7105 41.6385C27.8745 41.5836 28.1859 41.4799 28.6179 41.3388C28.864 41.2551 29.1484 41.1631 29.4708 41.065C29.0278 40.9757 28.585 40.872 28.1535 40.7423C26.4969 40.2438 25.0045 39.4399 23.7308 38.4084ZM54.3878 34.8326L53.6444 0.288134L52.6933 0.184386C52.6605 0.178627 51.0041 0 48.4837 0C45.5864 0 41.5466 0.239135 37.523 1.29371C35.5057 1.81812 33.4942 2.55288 31.6301 3.57865C30.772 4.0512 29.919 4.60729 29.1264 5.23541C29.3887 5.5034 29.6621 5.78863 29.9411 6.11134C30.0009 6.17185 30.0502 6.23525 30.1047 6.30153C30.2635 6.48882 30.4219 6.67322 30.5697 6.87204C31.2312 6.36202 31.9415 5.90388 32.6849 5.49184C35.1833 4.12033 38.0918 3.28473 40.8959 2.80356C43.7007 2.3166 46.4011 2.18693 48.4837 2.18693C49.6921 2.18693 50.6924 2.23015 51.3866 2.27337C51.425 2.27337 51.4631 2.27914 51.5013 2.27914L52.1792 33.8645C49.2383 34.17 46.2974 34.6511 43.5144 35.2043C43.2469 35.2592 42.9789 35.308 42.711 35.3629C41.9948 35.5099 41.2951 35.6596 40.6066 35.8124C40.4862 35.8383 40.366 35.8671 40.2511 35.893C38.4417 36.3021 36.7362 36.7256 35.1889 37.1349C32.3409 37.8898 30.0228 38.5928 28.5634 39.0595C28.383 39.1144 28.2188 39.1691 28.0658 39.2182C28.23 39.2756 28.394 39.3333 28.5634 39.3794C29.6128 39.6992 30.7227 39.8665 31.8761 39.8665C32.8438 39.8665 33.7948 39.7569 34.697 39.5294C34.713 39.5235 34.7353 39.5177 34.7515 39.5121C35.3637 39.3478 36.0092 39.1777 36.6813 39.0049C37.8292 38.7082 39.0539 38.4084 40.333 38.1173C40.672 38.0426 41.0109 37.9648 41.3551 37.8898C45.122 37.0571 49.2986 36.3138 53.3985 35.9421L54.4098 35.8556L54.3878 34.8326Z" fill="#4f86db"/>
<path d="M0.734375 2.19286V19.7489C0.734375 21.5498 1.37123 23.195 2.43445 24.4801C2.43445 24.486 2.43445 24.486 2.43445 24.486C3.44299 25.699 4.82021 26.5835 6.39926 26.9668C6.96674 27.1079 7.56318 27.1857 8.17691 27.1857C9.30064 27.1857 10.3725 26.9322 11.3292 26.4856C13.5939 25.4252 15.2335 23.2555 15.5561 20.6797C15.5935 20.38 15.6166 20.0688 15.6166 19.7489V8.60388H13.4297V19.7489C13.4297 19.9478 13.4182 20.1379 13.3951 20.3252C13.2655 21.5498 12.7122 22.6362 11.8882 23.463C10.9374 24.4138 9.62912 24.9988 8.17691 24.9988C6.7219 24.9988 5.41384 24.4138 4.45716 23.463C3.50631 22.5121 2.92132 21.204 2.92132 19.7489L2.88394 3.72288V3.18693H2.89539L2.90123 3.02269C4.13733 2.83539 6.58943 2.53577 9.51393 2.54152C12.4183 2.53577 15.7867 2.83542 18.8696 3.79778C20.4113 4.2732 21.8808 4.91863 23.1916 5.76575C24.5114 6.61287 25.6755 7.6588 26.6205 8.95254L26.6523 8.99863C26.949 9.32998 27.2284 9.68151 27.4936 10.0417C29.5623 12.8395 30.7811 16.3 30.7811 20.0515V29.1134C30.7811 30.8653 32.196 32.2799 33.9449 32.2799C35.5816 32.2799 36.9214 31.0468 37.0883 29.4563V29.4533C37.1058 29.3439 37.1116 29.2285 37.1116 29.1134V27.546V21.3078V20.6537C37.1116 20.4722 37.1317 20.2964 37.1808 20.1322C37.27 19.7893 37.4544 19.4781 37.7022 19.2303C38.0739 18.8644 38.5638 18.6396 39.1285 18.6396C39.6845 18.6396 40.1831 18.8644 40.5548 19.2303C40.5921 19.2707 40.6267 19.3081 40.6585 19.3456H40.6643C40.9092 19.6366 41.0734 19.991 41.122 20.3886C41.1339 20.4779 41.1398 20.5644 41.1398 20.6537V26.6699V27.7707V28.4104C41.1398 30.9746 40.1053 33.2856 38.4283 34.9654C36.7514 36.6423 34.4376 37.6796 31.8733 37.6796C29.3086 37.6796 27.0037 36.6423 25.3181 34.9654C23.6411 33.2856 22.6069 30.9746 22.6069 28.4104V26.1802H20.4199V28.4104C20.4199 33.4008 23.6096 37.6479 28.0641 39.2183C28.2281 39.276 28.3926 39.3306 28.5596 39.3825C29.6114 39.6995 30.7206 39.8666 31.8733 39.8666C32.8414 39.8666 33.7923 39.757 34.6941 39.5295C34.7112 39.5236 34.7315 39.518 34.7488 39.5122C36.8925 38.959 38.7886 37.7892 40.2494 36.216C40.3704 36.0833 40.4884 35.948 40.6038 35.8125C42.3037 33.8157 43.3267 31.237 43.3267 28.4104V27.5892V26.497V20.6537C43.3267 20.4981 43.3209 20.3512 43.2977 20.2042C43.2604 19.821 43.1739 19.4608 43.0356 19.1151C42.4247 17.5591 40.9033 16.4527 39.1285 16.4527C36.806 16.4527 34.9247 18.3342 34.9247 20.6537V29.1134C34.9247 29.6551 34.4866 30.093 33.9449 30.093C33.4029 30.093 32.9681 29.6551 32.9681 29.1134V20.0515C32.9681 15.6344 31.464 11.5659 28.943 8.33591C28.7643 8.1054 28.5767 7.88355 28.3867 7.66457C28.3694 7.63574 28.3465 7.60981 28.3206 7.58098C28.0526 7.27557 27.7788 6.98169 27.4908 6.69067C24.0388 3.17543 19.2357 1 13.9166 1H1.7198L0.734375 2.19286Z" fill="#4f86db"/>
<path d="M36.0313 14.3348L36.0376 14.3319C36.202 14.257 39.5408 12.7991 44.0647 12.802C45.4966 12.802 47.0467 12.946 48.6555 13.3234L48.9054 12.2603C47.2046 11.8597 45.57 11.707 44.0647 11.707C39.1531 11.7099 35.6212 13.3206 35.5779 13.3379L36.0313 14.3348Z" fill="#4f86db"/>
<path d="M37.1907 20.1321C37.1414 20.2963 37.1196 20.4721 37.1196 20.6536V21.3077C36.4743 21.5266 36.0918 21.6908 36.0369 21.7198H36.0315L35.5779 20.7228C35.5944 20.7112 36.1793 20.449 37.1907 20.1321Z" fill="#4f86db"/>
<path d="M48.8969 19.6451L48.6505 20.7111C47.0382 20.3366 45.4911 20.1867 44.0588 20.1867C43.8019 20.1867 43.5503 20.1925 43.2988 20.204C42.5338 20.2271 41.801 20.2962 41.1231 20.3884C41.0738 19.9908 40.91 19.6364 40.6641 19.3454C41.3966 19.2359 42.1945 19.1552 43.0364 19.1149C43.3699 19.1005 43.7089 19.0947 44.0588 19.0947C45.5622 19.0947 47.1966 19.2474 48.8969 19.6451Z" fill="#4f86db"/>
<path d="M37.1196 27.5458V29.4475C36.4743 29.6664 36.0918 29.8306 36.0369 29.8594L36.0315 29.8622L35.5779 28.1133C35.5944 28.1046 36.1517 27.8511 37.1196 27.5458Z" fill="#4f86db"/>
<path d="M48.8978 27.0327L48.6515 28.099C47.0391 27.7214 45.492 27.5715 44.0597 27.5715C43.8136 27.5715 43.5679 27.5773 43.3274 27.589C42.5563 27.6119 41.8237 27.6754 41.1406 27.7705V26.6697C41.8237 26.5832 42.5563 26.5169 43.3274 26.4968C43.5679 26.4853 43.8136 26.4795 44.0597 26.4795C45.5631 26.4795 47.1975 26.6323 48.8978 27.0327Z" fill="#4f86db"/>
<path d="M11.3292 26.4853C10.3728 26.9318 9.30111 27.1855 8.17501 27.1855C7.56279 27.1855 6.967 27.1077 6.39844 26.9664C7.99478 26.615 9.52521 26.4795 10.9467 26.4795C11.0777 26.4795 11.2037 26.4795 11.3292 26.4853Z" fill="#4f86db"/>
<path d="M24.4907 14.66C24.4907 15.5676 23.7562 16.2995 22.8507 16.2995C21.945 16.2995 21.2109 15.5676 21.2109 14.66C21.2109 13.7553 21.945 13.0205 22.8507 13.0205C23.7562 13.0205 24.4907 13.7553 24.4907 14.66Z" fill="#4f86db"/>
<path d="M73.3638 13.4105V17.1059H78.3286V19.4515H73.3638V23.3623H78.9627V25.7675H70.4062V11H78.9627V13.4105H73.3638Z" fill="#4f86db"/>
<path d="M84.1293 23.3972H88.9886V25.7424H81.1719V11H84.1293V23.3972Z" fill="#4f86db"/>
<path d="M93.887 13.4105V17.1059H98.852V19.4515H93.887V23.3623H99.4855V25.7675H90.9297V11H99.4855V13.4105H93.887Z" fill="#4f86db"/>
<path d="M104.957 17.1059V13.4105H110.556V11H102V25.7675H104.957V23.3623V19.4515H109.922V17.1059H104.957Z" fill="#4f86db"/>
<path d="M120.147 20.5917L118.013 14.4258L115.879 20.5917H120.147ZM120.949 22.9568H115.076L114.105 25.7675H111L116.302 11H119.746L125.049 25.7675H121.921L120.949 22.9568Z" fill="#4f86db"/>
<path d="M139.738 25.7675H136.779L130.082 15.6507V25.7675H127.125V11H130.082L136.779 21.1416V11H139.738V25.7675Z" fill="#4f86db"/>
<path d="M152.573 11V13.3854H148.644V25.7424H145.687V13.3854H141.758V11H152.573Z" fill="#4f86db"/>
<rect x="14" y="34" width="26" height="13" rx="6.5" fill="#eab308"/>
<path d="M19.374 43.0299V42.3877H20.8973C21.191 42.3877 21.4175 42.3055 21.5769 42.1413C21.7411 41.972 21.8233 41.748 21.8233 41.4692C21.8233 41.1854 21.7436 40.9639 21.5843 40.8046C21.425 40.6403 21.196 40.5582 20.8973 40.5582H19.374V40.0803H20.7928C21.1413 40.0803 21.4474 40.1226 21.7113 40.2072C21.9801 40.2918 22.1892 40.4337 22.3385 40.6329C22.4928 40.827 22.57 41.0933 22.57 41.4319V41.5364C22.57 41.855 22.5053 42.1263 22.3759 42.3503C22.2464 42.5694 22.0498 42.7386 21.7859 42.8581C21.5221 42.9726 21.191 43.0299 20.7928 43.0299H19.374ZM18.7915 43.0299V37.519H19.5233V43.0299H18.7915ZM19.374 40.4238V39.9459H20.6957C21.0044 39.9459 21.2309 39.8637 21.3752 39.6994C21.5246 39.5302 21.5993 39.3161 21.5993 39.0572C21.5993 38.7934 21.5246 38.5793 21.3752 38.4151C21.2309 38.2458 21.0044 38.1612 20.6957 38.1612H19.374V37.519H20.5688C21.1661 37.519 21.6117 37.6459 21.9054 37.8998C22.1991 38.1487 22.346 38.5096 22.346 38.9826V39.0871C22.346 39.4207 22.2713 39.687 22.122 39.8861C21.9726 40.0803 21.7635 40.2197 21.4947 40.3043C21.2309 40.3839 20.9222 40.4238 20.5688 40.4238H19.374ZM25.4284 43.1344C25.0799 43.1344 24.7787 43.0747 24.5248 42.9552C24.2709 42.8357 24.0643 42.6789 23.905 42.4848C23.7457 42.2856 23.6262 42.0641 23.5466 41.8202C23.4719 41.5762 23.4346 41.3273 23.4346 41.0734V40.939C23.4346 40.6801 23.4719 40.4287 23.5466 40.1848C23.6262 39.9409 23.7457 39.7218 23.905 39.5277C24.0643 39.3286 24.2659 39.1717 24.5099 39.0572C24.7588 38.9378 25.05 38.878 25.3836 38.878C25.8167 38.878 26.1726 38.9726 26.4514 39.1618C26.7351 39.346 26.9442 39.5849 27.0786 39.8787C27.218 40.1724 27.2877 40.486 27.2877 40.8195V41.1406H23.7482V40.603H26.765L26.6007 40.8942C26.6007 40.6105 26.5559 40.3665 26.4663 40.1624C26.3767 39.9533 26.2423 39.7915 26.0631 39.677C25.8839 39.5625 25.6574 39.5053 25.3836 39.5053C25.0998 39.5053 24.8633 39.57 24.6742 39.6994C24.49 39.8289 24.3506 40.0056 24.256 40.2296C24.1664 40.4536 24.1216 40.7125 24.1216 41.0062C24.1216 41.29 24.1664 41.5464 24.256 41.7754C24.3506 41.9994 24.4949 42.1786 24.6891 42.313C24.8832 42.4424 25.1297 42.5072 25.4284 42.5072C25.742 42.5072 25.9959 42.4375 26.19 42.2981C26.3892 42.1587 26.5086 41.9969 26.5485 41.8127H27.2205C27.1658 42.0865 27.0562 42.323 26.892 42.5221C26.7277 42.7212 26.5211 42.8731 26.2722 42.9776C26.0233 43.0821 25.742 43.1344 25.4284 43.1344ZM29.8588 43.0448C29.5601 43.0448 29.3012 43.0025 29.0822 42.9179C28.8681 42.8332 28.7013 42.6889 28.5818 42.4848C28.4673 42.2757 28.4101 41.9944 28.4101 41.6409V37.8027H29.0971V41.7306C29.0971 41.9446 29.1543 42.1114 29.2688 42.2309C29.3883 42.3454 29.5551 42.4026 29.7692 42.4026H30.4711V43.0448H29.8588ZM27.7231 39.5501V39.0124H30.4711V39.5501H27.7231ZM33.8824 43V41.8052H33.7629V40.4238C33.7629 40.15 33.6907 39.9434 33.5463 39.804C33.407 39.6646 33.2004 39.5949 32.9266 39.5949C32.7722 39.5949 32.6129 39.5974 32.4486 39.6024C32.2844 39.6073 32.1275 39.6123 31.9782 39.6173C31.8289 39.6223 31.6994 39.6297 31.5899 39.6397V39.0124C31.6994 39.0025 31.8139 38.995 31.9334 38.99C32.0579 38.9801 32.1848 38.9751 32.3142 38.9751C32.4437 38.9701 32.5681 38.9676 32.6876 38.9676C33.0958 38.9676 33.4294 39.0174 33.6882 39.117C33.9471 39.2116 34.1387 39.3684 34.2632 39.5874C34.3877 39.8065 34.4499 40.1027 34.4499 40.476V43H33.8824ZM32.5756 43.1045C32.2769 43.1045 32.018 43.0548 31.799 42.9552C31.5849 42.8507 31.4182 42.7013 31.2987 42.5072C31.1842 42.313 31.1269 42.079 31.1269 41.8052C31.1269 41.5215 31.1892 41.285 31.3136 41.0958C31.443 40.9067 31.6297 40.7648 31.8737 40.6702C32.1176 40.5706 32.4113 40.5208 32.7548 40.5208H33.8376V41.0585H32.7249C32.4362 41.0585 32.2147 41.1282 32.0603 41.2676C31.906 41.407 31.8289 41.5862 31.8289 41.8052C31.8289 42.0243 31.906 42.201 32.0603 42.3354C32.2147 42.4698 32.4362 42.537 32.7249 42.537C32.8942 42.537 33.056 42.5072 33.2103 42.4474C33.3646 42.3827 33.4916 42.2782 33.5911 42.1338C33.6957 41.9844 33.7529 41.7803 33.7629 41.5215L33.957 41.8052C33.9322 42.089 33.8625 42.3279 33.748 42.5221C33.6384 42.7113 33.4841 42.8556 33.285 42.9552C33.0908 43.0548 32.8544 43.1045 32.5756 43.1045Z" fill="black"/>
</svg>