<svg width="233" height="48" viewBox="0 0 233 48" fill="none" xmlns="http://www.w3.org/2000/svg">
<path d="M62.86 8.86265C60.6138 6.27465 57.5863 4.97659 53.7816 4.97659H40.1296C39.7471 4.97659 39.4215 5.24922 39.3564 5.62765L38.8315 8.60222C37.9892 7.83722 37.0614 7.1536 36.04 6.55543C33.3218 4.96031 30.095 4.16275 26.3676 4.16275C20.7155 4.16275 15.7877 5.97353 11.5843 9.5951C7.38082 13.2207 4.80911 17.8393 3.86913 23.4547C2.92508 29.18 4.06852 34.0061 7.2913 37.9369C10.5141 41.8677 15.0838 43.8332 20.9881 43.8332C25.6555 43.8332 29.7287 42.7263 33.2079 40.5127L32.9312 42.0956C32.8457 42.5758 33.216 43.0152 33.7043 43.0152H41.8223C42.2048 43.0152 42.5304 42.7426 42.5955 42.3682L44.4958 31.6012H49.4968C53.9159 31.6012 57.5293 30.4334 60.3411 28.0976C63.1489 25.7619 64.8254 22.6734 65.3666 18.8321C65.9485 14.7752 65.1143 11.4506 62.8681 8.85858L62.86 8.86265ZM41.5334 25.0132C40.6585 30.3682 38.3839 34.6165 34.7094 37.7497C31.039 40.883 26.5222 42.4496 21.1631 42.4496C15.804 42.4496 11.4256 40.6226 8.4266 36.9644C5.42762 33.3103 4.36557 28.8179 5.24451 23.4913C6.11938 18.2706 8.51206 13.9735 12.4225 10.6043C16.333 7.23498 20.9149 5.55034 26.1723 5.55034C29.6433 5.55034 32.6423 6.29093 35.1692 7.77618C37.6962 9.25736 39.6372 11.296 40.9841 13.8922L32.6952 18.3398C31.2099 15.7111 28.7359 14.3967 25.2649 14.3967C22.5019 14.3967 20.1011 15.2797 18.0624 17.0498C16.0238 18.8199 14.7501 21.1353 14.2455 24C13.7409 26.8321 14.1926 29.1841 15.6087 31.0519C17.0248 32.9237 19.1489 33.8555 21.977 33.8555C26.3269 33.8555 29.3747 32.3052 31.1285 29.2045H22.9414L24.3045 21.4201H42.1479L41.5416 25.0091L41.5334 25.0132ZM55.2791 21.1556C54.5792 21.8881 53.6107 22.3438 52.5405 22.3438H46.4856C46.3106 22.3438 46.1763 22.1811 46.2089 21.998L47.4663 14.4903C47.4907 14.3479 47.6087 14.2462 47.743 14.2462H52.5405C54.6809 14.2462 56.4144 16.057 56.4144 18.295C56.4144 19.414 55.979 20.4232 55.2791 21.1556Z" fill="#2C3E50"/>
<path d="M72.1504 18.3601C72.1504 14.1851 75.1127 10.7996 79.5563 10.7996C83.9998 10.7996 85.7048 13.0865 85.7048 14.7263C85.7048 15.5117 85.1229 16.5209 83.8656 16.5209C80.9927 16.5209 81.4647 12.7284 78.8157 12.7284C77.2898 12.7284 76.48 13.9613 76.48 16.4313C76.48 20.94 78.5431 23.8372 81.3711 23.8372C82.1117 23.8372 82.5838 23.7233 82.8971 23.5687L82.8767 21.3021C82.8767 20.2482 81.5543 20.4924 81.5543 19.5524C81.5543 19.1495 81.7781 18.8118 82.2948 18.8118L86.4006 18.8321C86.893 18.8321 87.0965 19.1455 87.0965 19.5524C87.0965 20.4964 85.9286 20.2482 85.9286 21.3265L85.9083 23.4588C85.9083 23.9512 85.6601 24.4476 85.009 25.0295C83.9307 25.9735 82.2948 26.7141 80.0731 26.7141C75.6092 26.7141 72.1504 23.7518 72.1504 18.3683V18.3601Z" fill="#2C3E50"/>
<path d="M88.5982 20.1099V13.8474C88.5982 12.8586 87.6094 12.8138 87.6094 11.9634C87.6094 11.2228 88.2157 11.1089 88.9766 11.1089H92.3215C93.0824 11.1089 93.6887 11.2228 93.6887 11.9634C93.6887 12.8179 92.6999 12.8627 92.6999 13.8474V20.6022C92.6999 22.938 93.351 24.7325 95.7966 24.7325C98.2421 24.7325 98.8484 22.8688 98.8484 20.6022V13.6236C98.8484 12.7243 97.705 12.6796 97.705 11.8942C97.705 11.2228 98.3317 11.1089 99.0519 11.1089H100.602C101.343 11.1089 101.949 11.2228 101.949 11.8942C101.949 12.6796 100.806 12.7243 100.806 13.6236V20.1099C100.806 22.352 100.448 26.6612 94.9949 26.6612C89.0254 26.6612 88.5982 22.3072 88.5982 20.1099Z" fill="#2C3E50"/>
<path d="M114.942 23.1618L114.36 25.7213C114.225 26.2381 113.977 26.3723 113.281 26.3723H104.463C103.633 26.3723 102.962 26.2828 102.962 25.5178C102.962 24.6633 104.04 24.6185 104.04 23.6541V13.8474C104.04 12.8586 102.962 12.8138 102.962 11.9634C102.962 11.2228 103.633 11.1089 104.463 11.1089H112.675C113.346 11.1089 113.619 11.2431 113.753 11.7803L114.315 14.3398C114.518 15.2147 114.002 15.5972 113.554 15.5972C112.744 15.5972 112.61 14.7915 112.142 13.9573C111.849 13.4405 111.426 13.0376 110.64 13.0376H108.866C108.329 13.0376 108.146 13.2615 108.146 13.9369V17.7294H109.558C110.343 17.7294 110.612 17.4364 110.791 17.0092C110.97 16.5371 111.06 16.1546 111.601 16.1546C112.183 16.1546 112.5 16.826 112.5 18.6897C112.5 20.5534 112.207 21.2492 111.625 21.2492C111.108 21.2492 111.019 20.822 110.795 20.35C110.616 19.9227 110.303 19.6541 109.562 19.6541H108.15V23.5605C108.15 24.2116 108.329 24.4598 108.87 24.4598H110.933C111.694 24.4598 112.191 24.2564 112.594 23.5402C113.041 22.6857 113.289 21.9003 114.164 21.9003C114.636 21.9003 115.129 22.2584 114.95 23.1577L114.942 23.1618Z" fill="#2C3E50"/>
<path d="M115.682 23.3652C115.682 22.2869 116.402 21.7701 117.163 21.7701C119.36 21.7701 119.405 24.7772 121.606 24.7772C122.66 24.7772 123.56 24.3052 123.56 23.1373C123.56 21.8799 122.461 21.3184 120.17 20.175C117.366 18.763 116.308 17.2818 116.308 15.3042C116.308 12.59 118.575 10.7711 122.03 10.7711C125.846 10.7711 127.706 12.4313 127.706 14.0264C127.706 14.9013 127.055 15.5076 126.249 15.5076C123.914 15.5076 123.962 12.6795 122.099 12.6795C121.244 12.6795 120.394 13.1271 120.394 14.1607C120.394 15.3041 121.224 16.2238 123.739 17.3265C126.209 18.4049 127.914 19.5931 127.914 22.1526C127.914 24.7121 125.94 26.6856 121.741 26.6856C118.172 26.6856 115.682 25.0458 115.682 23.3652Z" fill="#2C3E50"/>
<path d="M132.264 25.5178C132.264 24.6633 133.342 24.6185 133.342 23.6541V14.0712C133.342 13.2411 133.208 13.0376 132.646 13.0376H132.288C131.548 13.0376 131.01 13.1719 130.648 13.9573C130.111 15.1251 129.863 16.0895 128.988 16.0895C128.516 16.0895 128.113 15.7762 128.134 14.9664C128.154 14.3154 128.626 12.3622 128.85 11.7803C129.053 11.2635 129.253 11.1089 129.928 11.1089H140.858C141.529 11.1089 141.733 11.2676 141.936 11.7803C142.16 12.3622 142.632 14.3154 142.656 14.9664C142.677 15.7762 142.274 16.0895 141.802 16.0895C140.927 16.0895 140.679 15.1251 140.142 13.9573C139.784 13.1719 139.242 13.0376 138.481 13.0376H138.144C137.582 13.0376 137.448 13.2167 137.448 14.0265V23.6541C137.448 24.6185 138.502 24.6633 138.502 25.5178C138.502 26.2787 137.83 26.3723 137.021 26.3723H133.765C132.935 26.3723 132.264 26.2828 132.264 25.5178Z" fill="#2C3E50"/>
<path d="M148.443 21.1434V23.6582C148.443 24.6225 149.497 24.6673 149.497 25.5218C149.497 26.2828 148.826 26.3764 148.016 26.3764H144.76C143.951 26.3764 143.279 26.2868 143.279 25.5218C143.279 24.6673 144.333 24.6225 144.333 23.6582V13.8514C144.333 12.8626 143.255 12.8179 143.255 11.9674C143.255 11.2268 143.926 11.1129 144.756 11.1129H149.672C153.509 11.1129 156.427 12.7731 156.427 15.8698C156.427 19.7762 153.151 21.1434 149.045 21.1434H148.439H148.443ZM148.443 13.9613V19.2797H148.891C150.62 19.2797 151.987 18.4048 151.987 16.3621C151.987 14.4781 150.889 13.0417 149.363 13.0417H149.094C148.512 13.0417 148.443 13.4445 148.443 13.9613Z" fill="#00B7A8"/>
<path d="M156.969 18.6938C156.969 14.0956 160.289 10.7711 165.16 10.7711C170.881 10.7711 173.193 15.0356 173.193 18.8484C173.193 23.5157 169.803 26.6816 165.001 26.6816C160.2 26.6816 156.969 23.3611 156.969 18.6938ZM168.794 21.0498C168.794 17.9735 167.134 12.7487 164.171 12.7487C162.397 12.7487 161.368 14.1607 161.368 16.4964C161.368 19.4344 163.186 24.7324 166.08 24.7324C167.829 24.7324 168.794 23.1861 168.794 21.0539V21.0498Z" fill="#00B7A8"/>
<path d="M174.177 25.5178C174.177 24.6633 175.231 24.6185 175.231 23.6541V13.8474C175.231 12.8586 174.152 12.8138 174.152 11.9634C174.152 11.2228 174.824 11.1089 175.654 11.1089H180.903C185.123 11.1089 187.703 12.8138 187.703 15.6419C187.703 18.0224 186.401 19.3001 185.143 19.882L187.161 23.764C187.341 24.1465 187.723 24.3255 188.106 24.5697C188.443 24.7732 188.732 24.9725 188.732 25.4446C188.732 26.0509 188.215 26.3642 187.609 26.3642H183.548C182.718 26.3642 182.136 26.2299 182.136 25.4649C182.136 24.6999 183.17 24.6104 182.807 23.8047L181.212 20.6185L179.328 20.6389V23.646C179.328 24.6104 180.382 24.6551 180.382 25.5097C180.382 26.2706 179.711 26.3642 178.901 26.3642H175.646C174.836 26.3642 174.165 26.2747 174.165 25.5097L174.177 25.5178ZM183.263 16.0041C183.288 14.5473 182.319 13.0417 180.435 13.0417H180.122C179.402 13.0417 179.336 13.5585 179.336 14.2096V18.6979H180.301C182.095 18.7223 183.263 17.7091 183.263 16.0041Z" fill="#00B7A8"/>
<path d="M192.443 25.5178C192.443 24.6633 193.522 24.6185 193.522 23.6541V14.0712C193.522 13.2411 193.387 13.0376 192.826 13.0376H192.468C191.727 13.0376 191.19 13.1719 190.828 13.9573C190.291 15.1251 190.043 16.0895 189.168 16.0895C188.696 16.0895 188.293 15.7762 188.313 14.9664C188.334 14.3154 188.806 12.3622 189.029 11.7803C189.233 11.2635 189.432 11.1089 190.108 11.1089H201.038C201.709 11.1089 201.912 11.2676 202.116 11.7803C202.34 12.3622 202.812 14.3154 202.836 14.9664C202.856 15.7762 202.454 16.0895 201.982 16.0895C201.107 16.0895 200.859 15.1251 200.321 13.9573C199.963 13.1719 199.422 13.0376 198.661 13.0376H198.323C197.762 13.0376 197.628 13.2167 197.628 14.0265V23.6541C197.628 24.6185 198.682 24.6633 198.682 25.5178C198.682 26.2787 198.01 26.3723 197.2 26.3723H193.945C193.115 26.3723 192.443 26.2828 192.443 25.5178Z" fill="#00B7A8"/>
<path d="M216.074 25.5178C216.074 25.945 215.715 26.3479 214.861 26.3479H210.621C209.791 26.3479 209.433 26.0549 209.433 25.4934C209.433 24.3947 210.78 24.708 210.511 23.6989L210.039 22.1282H204.676L204.069 23.8331C204.049 23.9227 204.049 23.9918 204.049 24.0814C204.049 24.822 205.217 24.708 205.217 25.5829C205.217 26.0997 204.904 26.3682 204.094 26.3682H201.559C200.887 26.3682 200.505 26.0305 200.505 25.4934C200.505 24.5737 201.762 24.5737 201.986 23.8535L206.002 12.9684C206.653 11.3733 207.036 10.7711 208.83 10.7711C210.153 10.7711 210.67 11.2635 211.073 12.5005L214.731 23.3855C215.313 24.9807 216.078 24.4394 216.078 25.5178H216.074ZM209.453 20.1994L207.748 14.4985C207.679 14.295 207.5 14.2746 207.435 14.4781L205.372 20.1994H209.457H209.453Z" fill="#00B7A8"/>
<path d="M216.431 25.5178C216.431 24.6633 217.485 24.6185 217.485 23.6541V13.8474C217.485 12.8586 216.406 12.8138 216.406 11.9634C216.406 11.2228 217.078 11.1089 217.908 11.1089H221.163C221.969 11.1089 222.644 11.2228 222.644 11.9634C222.644 12.8179 221.59 12.8627 221.59 13.8474V23.1373C221.59 24.1262 221.704 24.4395 222.4 24.4598H224.398C225.163 24.4598 225.655 24.2564 226.058 23.5402C226.506 22.6857 226.754 21.7213 227.629 21.7213C228.101 21.7213 228.504 22.0346 228.484 22.8444C228.439 23.4954 228.056 25.1109 227.833 25.7172C227.629 26.2096 227.45 26.3683 226.754 26.3683H217.912C217.082 26.3683 216.431 26.2787 216.431 25.5137V25.5178Z" fill="#00B7A8"/>
<path d="M72.5537 31.4385H73.0868L75.3167 36.2076L77.5344 31.4385H78.0756V37.1028H77.5262V32.7284L75.5079 37.1068H75.1336L73.1193 32.7284V37.1068H72.5659V31.4385H72.5537Z" fill="#979797"/>
<path d="M81.9159 31.4385H82.685L84.6382 37.1068H84.036L83.5599 35.7315H81.0411L80.569 37.1068H79.9668L81.92 31.4385H81.9159ZM83.3686 35.1903L82.2944 32.0936L81.2282 35.1903H83.3686Z" fill="#979797"/>
<path d="M86.5273 31.4385H87.1052V34.116L89.6932 31.4385H90.4338L87.7929 34.173L90.6494 37.1068H89.8926L87.1052 34.2706V37.1068H86.5273V31.4385Z" fill="#979797"/>
<path d="M92.3867 31.4385H95.931V31.9919H92.9686V33.9532H95.4589V34.5066H92.9686V36.5493H95.931V37.1027H92.3867V31.4344V31.4385Z" fill="#979797"/>
<path d="M100.813 31.4385H104.358V31.9919H101.395V33.9532H103.886V34.5066H101.395V36.5493H104.358V37.1027H100.813V31.4344V31.4385Z" fill="#979797"/>
<path d="M105.974 31.4385H106.576L108.305 36.4517L110.047 31.4385H110.649L108.696 37.1068H107.927L105.974 31.4385Z" fill="#979797"/>
<path d="M112.423 31.4385H115.967V31.9919H113.005V33.9532H115.495V34.5066H113.005V36.5493H115.967V37.1027H112.423V31.4344V31.4385Z" fill="#979797"/>
<path d="M118.092 31.4385H120.281C120.391 31.4385 120.537 31.4466 120.68 31.471C121.567 31.6094 122.063 32.3133 122.063 33.2004C122.063 33.9451 121.713 34.5595 121.075 34.8159L122.194 37.1109H121.53L120.489 34.9583H118.678V37.1109H118.1V31.4425L118.092 31.4385ZM120.265 34.4008C120.358 34.4008 120.497 34.3927 120.615 34.3642C121.197 34.2421 121.465 33.7213 121.465 33.1964C121.465 32.6714 121.197 32.1506 120.615 32.0244C120.497 32 120.358 31.9919 120.265 31.9919H118.67V34.4008H120.265Z" fill="#979797"/>
<path d="M125.501 34.7345L123.601 31.4385H124.268L125.79 34.0712L127.304 31.4385H127.971L126.079 34.7345V37.1068H125.497V34.7345H125.501Z" fill="#979797"/>
<path d="M131.865 35.589L132.455 35.4913C132.642 36.2279 133.298 36.6673 134.144 36.6673C134.99 36.6673 135.601 36.2482 135.601 35.5809C135.601 34.999 135.125 34.7833 134.73 34.6653L133.294 34.238C132.602 34.0346 132.085 33.6399 132.085 32.8789C132.085 31.9227 132.903 31.3204 134.022 31.3245C135.157 31.3245 135.975 31.9593 136.158 32.9766L135.552 33.0865C135.438 32.3499 134.807 31.882 134.018 31.8739C133.257 31.8739 132.695 32.293 132.695 32.8545C132.695 33.4161 133.261 33.6236 133.704 33.7497L134.815 34.0753C135.275 34.2055 136.195 34.4863 136.195 35.5605C136.195 36.6348 135.308 37.2248 134.124 37.2248C132.939 37.2248 132.061 36.5982 131.869 35.5931L131.865 35.589Z" fill="#979797"/>
<path d="M139.698 31.9919H137.717V31.4385H142.254V31.9919H140.272V37.1068H139.694V31.9919H139.698Z" fill="#979797"/>
<path d="M145.473 31.4385H146.242L148.195 37.1068H147.593L147.117 35.7315H144.598L144.126 37.1068H143.523L145.477 31.4385H145.473ZM146.925 35.1903L145.851 32.0936L144.785 35.1903H146.925Z" fill="#979797"/>
<path d="M150.967 34.7345L149.066 31.4385H149.734L151.256 34.0712L152.769 31.4385H153.437L151.545 34.7345V37.1068H150.963V34.7345H150.967Z" fill="#979797"/>
<path d="M157.33 35.589L157.92 35.4913C158.107 36.2279 158.762 36.6673 159.609 36.6673C160.455 36.6673 161.066 36.2482 161.066 35.5809C161.066 34.999 160.589 34.7833 160.195 34.6653L158.758 34.238C158.067 34.0346 157.55 33.6399 157.55 32.8789C157.55 31.9227 158.368 31.3204 159.487 31.3245C160.622 31.3245 161.44 31.9593 161.623 32.9766L161.017 33.0865C160.903 32.3499 160.272 31.882 159.483 31.8739C158.722 31.8739 158.16 32.293 158.16 32.8545C158.16 33.4161 158.726 33.6236 159.169 33.7497L160.28 34.0753C160.74 34.2055 161.66 34.4863 161.66 35.5605C161.66 36.6348 160.773 37.2248 159.588 37.2248C158.404 37.2248 157.525 36.5982 157.334 35.5931L157.33 35.589Z" fill="#979797"/>
<path d="M163.657 31.4385H164.19L166.42 36.2076L168.638 31.4385H169.175V37.1028H168.626V32.7284L166.607 37.1068H166.233L164.219 32.7284V37.1068H163.665V31.4385H163.657Z" fill="#979797"/>
<path d="M173.017 31.4385H173.787L175.74 37.1068H175.138L174.661 35.7315H172.143L171.671 37.1068H171.068L173.022 31.4385H173.017ZM174.47 35.1903L173.396 32.0936L172.33 35.1903H174.47Z" fill="#979797"/>
<path d="M177.632 31.4385H179.821C179.931 31.4385 180.077 31.4466 180.22 31.471C181.107 31.6094 181.603 32.3133 181.603 33.2004C181.603 33.9451 181.253 34.5595 180.615 34.8159L181.734 37.1109H181.07L180.029 34.9583H178.218V37.1109H177.64V31.4425L177.632 31.4385ZM179.805 34.4008C179.898 34.4008 180.037 34.3927 180.155 34.3642C180.737 34.2421 181.005 33.7213 181.005 33.1964C181.005 32.6714 180.737 32.1506 180.155 32.0244C180.037 32 179.898 31.9919 179.805 31.9919H178.21V34.4008H179.805Z" fill="#979797"/>
<path d="M185.29 31.9919H183.309V31.4385H187.846V31.9919H185.864V37.1068H185.286V31.9919H185.29Z" fill="#979797"/>
<path d="M189.66 31.4385H193.204V31.9919H190.242V33.9532H192.732V34.5066H190.242V36.5493H193.204V37.1027H189.66V31.4344V31.4385Z" fill="#979797"/>
<path d="M195.333 31.4385H197.522C197.632 31.4385 197.779 31.4466 197.921 31.471C198.808 31.6094 199.305 32.3133 199.305 33.2004C199.305 33.9451 198.955 34.5595 198.316 34.8159L199.435 37.1109H198.771L197.73 34.9583H195.919V37.1109H195.341V31.4425L195.333 31.4385ZM197.506 34.4008C197.6 34.4008 197.738 34.3927 197.856 34.3642C198.438 34.2421 198.706 33.7213 198.706 33.1964C198.706 32.6714 198.438 32.1506 197.856 32.0244C197.738 32 197.6 31.9919 197.506 31.9919H195.911V34.4008H197.506Z" fill="#979797"/>
</svg>
