<svg width="76" height="23" viewBox="0 0 76 23" fill="none" xmlns="http://www.w3.org/2000/svg">
<path fill-rule="evenodd" clip-rule="evenodd" d="M6.39999 6.7C7.39999 6.7 7.89999 6.2 7.89999 5.3C7.89999 4.4 7.29999 3.9 6.39999 3.9H4.20001V2.3C4.20001 1.1 3.4 0.5 2.5 0.5C1.7 0.5 0.799988 1.1 0.799988 2.3V13.5C0.799988 16.2 1.89999 17.4 4.29999 17.4C5.59999 17.4 6.29999 17.1 6.89999 16.7C7.29999 16.5 7.5 16 7.5 15.6C7.5 14.9 6.99999 14.1 6.29999 14.1C6.19999 14.1 6.1 14.1 6 14.2C6 14.2 5.89999 14.2 5.89999 14.3C5.69999 14.4 5.50001 14.5 5.10001 14.5C4.70001 14.5 4.20001 14.3 4.20001 13.2V7L6.39999 6.7Z" fill="black"/>
<path fill-rule="evenodd" clip-rule="evenodd" d="M14.1 6.2001C14.5 6.0001 14.9 6.0001 15.4 6.0001C16.8 6.0001 17.8 6.9001 18.2 7.8001L12 10.1001C11.7 8.7001 12.1 7.0001 14.1 6.2001ZM20.8 12.4001C20.5 12.4001 20.1 12.5001 19.9 12.7001C19.3 13.2001 18.6 13.6001 17.8 13.9001C17.2 14.1001 16.6 14.2001 16.1 14.2001C14.7 14.2001 13.4 13.4001 12.8 12.1001L20.5 9.3001C21.7 8.9001 21.9 8.0001 21.6 7.3001C20.7 4.7001 18.5 3.1001 15.8 3.1001C14.9 3.1001 14.1 3.3001 13.2 3.6001C11.2 4.3001 9.80002 5.6001 9.10002 7.3001C8.50002 8.9001 8.50002 10.7001 9.10002 12.5001C10.1 15.4001 12.4 17.0001 15.2 17.0001C15.7 17.0001 16.3 16.9001 16.9 16.8001C17.4 16.7001 17.9 16.6001 18.4 16.4001C19.7 15.9001 20.9 15.3001 21.8 14.4001C22.1 14.1001 22.2 13.6001 22.1 13.2001C22 12.9001 21.4 12.4001 20.8 12.4001Z" fill="black"/>
<path fill-rule="evenodd" clip-rule="evenodd" d="M30.6 10.3L34.3 6.50005C34.8 6.00005 35.3 5.50005 35.3 4.80005C35.3 3.90005 34.6 3.30005 33.8 3.30005C33.1 3.30005 32.6 3.80005 32.2 4.30005L27.8 8.90005V2.00005C27.8 1.10005 27 0.300049 26.1 0.300049C25.2 0.300049 24.4 1.00005 24.4 2.00005V15.5C24.4 16.4 25.1 17.2001 26.1 17.2001C27 17.2001 27.8 16.5 27.8 15.5V11.4001L32.2 16C32.3 16.1 32.4 16.2001 32.4 16.2001C32.8 16.7001 33.3 17.1 34 17.1C34.8 17.1 35.5 16.4 35.5 15.6C35.5 15 35.1 14.6001 34.7 14.2001L30.6 10.3Z" fill="black"/>
<path d="M54.9 12.1001C56 9.70006 57.1 7.30007 58.1 5.00007C58.4 4.30007 58.8 3.80007 59.6 3.80007C61 3.80007 61.6 4.60007 61 5.90007C58.5 11.2001 56.1 16.6001 53.6 21.9001C53.1 22.9001 52.2 23.2001 51.2 22.8001C50.4 22.5001 50.3 21.8001 50.8 20.7001C51.3 19.7001 51.8 18.7001 52.2 17.7001C52.6 16.9001 53 16.3001 54 16.3001C54.5 16.3001 54.7 16.0001 54.3 15.7001C51.7 13.8001 51.2 10.6001 49.7 8.00007C49.3 7.40007 49.1 6.60007 48.8 6.00007C48.4 5.20007 48.3 4.50007 49.1 4.00007C49.9 3.50007 51.3 3.90007 51.7 4.70007C52.5 6.50007 53.2 8.30007 54 10.0001C54.3 10.7001 54.6 11.3001 54.9 12.1001Z" fill="black"/>
<path d="M42.6 3.30005C43.9 3.30005 45.1 3.50005 46.3 3.90005C47.2 4.20005 47.6 4.90005 47.3 5.60005C47 6.40005 46.4 6.70005 45.5 6.50005C44.4 6.20005 43.3 5.90005 42.1 6.00005C41.7 6.00005 41.4 6.10005 41 6.20005C40.5 6.40005 40.2 6.70005 40.2 7.30005C40.2 7.90005 40.5 8.20005 41 8.30005C41.8 8.50005 42.7 8.70005 43.5 8.90005C44.3 9.10005 45 9.30005 45.8 9.50005C47.2 10 48 10.9001 48.2 12.4001C48.3 14.0001 47.8 15.4001 46.4 16.2001C43.7 17.7001 40.9 17.3001 38.2 16.4001C37.5 16.2001 37.2 15.5001 37.5 14.7001C37.8 13.9001 38.4 13.6001 39.2 13.9001C40.5 14.3001 41.9 14.7 43.3 14.5C44.1 14.4 44.8 14.2001 44.9 13.2001C45 12.2001 44.2 12 43.4 11.8C42.1 11.5 40.9 11.4001 39.6 10.9001C38.1 10.4001 37 9.40005 36.9 7.70005C36.8 6.00005 37.6 4.80005 39.1 4.10005C40.2 3.40005 41.4 3.30005 42.6 3.30005Z" fill="black"/>
<path d="M67.6 16.9C66.9 16.8 66.3 16.7 65.7 16.4C64.9 16.1 64.2 15.6 63.5 14.9C62.9 14.3 62.4 13.6 62 12.7C61.6 11.9 61.5 11 61.5 10.1C61.5 9.20001 61.7 8.30001 62 7.50001C62.4 6.70001 62.8 6.00001 63.5 5.30001C64.1 4.70001 64.9 4.20001 65.7 3.80001C67 3.20001 68.6 3.10001 70.1 3.50001L70.4 3.60001L66.2 6.20001C65.8 6.40001 65.5 6.70001 65.2 7.00001C64.8 7.40001 64.5 7.90001 64.3 8.40001C64.1 8.90001 64 9.50001 64 10.1C64 10.7 64.1 11.2 64.3 11.8C64.5 12.4 64.8 12.8 65.2 13.2C65.6 13.6 66.1 13.9 66.6 14.1C67.3 14.4 68.2 14.5 69 14.4L69.4 14.3L67.6 16.9Z" fill="black"/>
<path d="M68.5 17C68.4 17 68.4 17 68.4 16.9C68.4 16.8 68.4 16.8 68.4 16.7L70.2 14.3C70.2 14.3 70.2 14.3 70.3 14.2C70.8 14 71.3 13.7 71.7 13.3C72.1 12.9 72.4 12.4 72.6 11.9C72.8 11.4 72.9 10.8 72.9 10.2C72.9 9.6 72.8 9.1 72.6 8.5C72.4 8 72.1 7.5 71.7 7.1C71.3 6.7 70.8 6.4 70.3 6.2C69.8 6 69.2 5.9 68.6 5.9C68.5 5.9 68.5 5.9 68.5 5.8C68.5 5.7 68.5 5.7 68.6 5.6L71 4H71.1C71.9 4.3 72.6 4.8 73.3 5.4C73.9 6 74.4 6.8 74.7 7.6C75 8.4 75.2 9.3 75.2 10.2C75.2 11.1 75 12 74.7 12.8C74.4 13.6 73.9 14.3 73.3 15C72.7 15.6 72 16.1 71.1 16.4C70.3 16.8 69.4 17 68.5 17Z" fill="#F20A1C"/>
</svg>
