<svg xmlns="http://www.w3.org/2000/svg" width="710.667" height="222.667" viewBox="0 0 710.667 222.667"><defs><clipPath id="b" clipPathUnits="userSpaceOnUse"><use href="#a"/></clipPath><clipPath id="d" clipPathUnits="userSpaceOnUse"><use href="#a"/></clipPath><clipPath id="e" clipPathUnits="userSpaceOnUse"><use href="#a"/></clipPath><pattern id="f" width="98.819" height="94.11" x="0" y="0" patternTransform="translate(-38 70.6)" patternUnits="userSpaceOnUse"><use clip-path="url(#b)" href="#c" transform="scale(.1)"/></pattern><pattern id="g" width="98.819" height="94.11" x="0" y="0" patternTransform="translate(-38 70.6)" patternUnits="userSpaceOnUse"><use clip-path="url(#d)" href="#c" transform="scale(.1)"/></pattern><pattern id="h" width="98.819" height="94.11" x="0" y="0" patternTransform="translate(-38 70.6)" patternUnits="userSpaceOnUse"><use clip-path="url(#e)" href="#c" transform="scale(.1)"/></pattern><path id="a" d="M0 942h989V0H0Z"/><path id="c" fill="#33963d" stroke="none" d="M988.191 0H0v941.105h988.191z"/></defs><path fill="url(#f)" d="M555.664 784.348V630.02h91.621c43.336 0 74.492 5.992 93.508 18.019 19.012 11.961 28.516 32.797 28.516 62.43 0 22.711-9.036 40.722-27.114 53.984-18.07 13.262-42.246 19.895-72.465 19.895zm0 259.412V903.988h85.082c26.195 0 46.59 6.692 61.258 20.121 14.641 13.379 21.976 30.223 21.976 50.465 0 19.953-7.335 36.496-21.976 49.586-14.668 13.09-35.063 19.6-61.258 19.6zm-162.684 119.7h282.356c67.332 0 120.23-16.19 158.723-48.58 38.492-32.4 57.738-70.71 57.738-114.896 0-56.683-29.777-100.164-89.277-130.32 44.859-11.855 79.214-32.805 103.066-62.73 23.852-29.926 35.766-64.899 35.766-104.793 0-56.743-19.481-102.93-58.442-138.422-38.965-35.571-96.293-53.34-172.047-53.34H392.98z" transform="matrix(.13333 0 0 -.13333 0 222.667)"/><path fill="url(#g)" d="M1407.9 637.531c61.73 0 111.43 18.309 149.13 54.926 37.73 36.609 56.59 84.672 56.59 144.227 0 59.847-18.86 107.968-56.59 144.464-37.7 36.442-87.4 54.692-149.13 54.692-62.03 0-111.96-18.25-149.83-54.692-37.86-36.496-56.81-84.617-56.81-144.464 0-59.555 18.95-107.618 56.81-144.227 37.87-36.617 87.8-54.926 149.83-54.926m0 534.349c111.28 0 201.35-33.59 270.21-100.72 68.89-67.18 103.33-145.344 103.33-234.476 0-90.422-34.91-168.754-104.71-235.184-69.83-66.359-159.43-99.57-268.83-99.57-110.64 0-200.71 33.031-270.21 99.109-69.51 66.063-104.24 144.637-104.24 235.645 0 89.425 34.5 167.636 103.53 234.706 69.04 66.95 159.34 100.49 270.92 100.49" transform="matrix(.13333 0 0 -.13333 0 222.667)"/><path fill="url(#h)" d="m2531.2 1163.46-255.43-314.632 283.47-338.449h-211.06l-177.06 215.637-173.92-215.637h-207.93l277.32 338.391-261.88 314.69h211.06l155.55-192.815 153.18 192.815z" transform="matrix(.13333 0 0 -.13333 0 222.667)"/><path fill="#100f0d" d="M380.116 118.087v20.577h12.217q8.663.001 12.467-2.403c2.535-1.594 3.803-4.372 3.803-8.324 0-3.028-1.21-5.43-3.619-7.197q-3.615-2.653-9.659-2.653zm0-34.588v18.636h11.345q5.235.002 8.164-2.683c1.952-1.784 2.93-4.03 2.93-6.729q-.001-3.992-2.93-6.611c-1.952-1.745-4.674-2.613-8.164-2.613zm-21.692-15.96h37.65q13.461 0 21.162 6.477c5.128 4.32 7.699 9.428 7.699 15.32 0 7.557-3.971 13.355-11.908 17.375 5.985 1.581 10.565 4.374 13.746 8.364 3.176 3.99 4.768 8.654 4.768 13.973 0 7.566-2.597 13.724-7.792 18.456q-7.792 7.113-22.94 7.112h-42.385zm159.851 0h21.692v49.43c0 12.713-3.76 22.36-11.282 28.924q-11.285 9.848-32.226 9.85-20.697 0-32.132-9.975c-7.63-6.65-11.439-16.203-11.439-28.674V67.539h21.753v50.055c0 6.064 1.984 10.93 5.955 14.584 3.967 3.662 9.173 5.485 15.612 5.485q10.036 0 16.05-5.61 6.016-5.61 6.017-15.96zm65.664 87.077v-40.629L549.593 67.54h26.295l18.895 27.367 18.972-27.367h26.221l-34.345 46.473v40.604z"/></svg>