<svg xmlns="http://www.w3.org/2000/svg" width="192" height="32" fill="none" viewBox="0 0 192 32"><path fill="#666" d="M56.982 19.982c-.323 0-.644.235-1.03.59-1.261 1.347-2.495 2.023-4.728 2.023-3.47 0-6.614-3.112-6.614-8.757 0-3.847 1.352-6.139 3.97-6.139 3.76 0 3.467 4.995 6.669 4.995 1.32 0 2.086-1.003 2.086-2.027 0-2.086-2.644-5.026-7.758-5.026-5.701 0-9.58 4.142-9.58 10.226 0 6.465 4.231 10.58 9.874 10.58 4.524 0 6.904-2.408 7.726-4.232.145-.41.263-.793.263-1.261 0-.559-.324-.972-.88-.972zm19.37 2.468L71.035 7.347c-.414-1.265-.94-1.792-2.323-1.792-1.702 0-2.115.558-2.732 2.174l-5.876 14.986c-.472 1.324-2.236 1.148-2.236 2.323 0 .617.44.971 1.323.971h3.612c.971 0 1.351-.294 1.351-.883 0-1.027-1.82-.907-1.82-1.937 0-.118.028-.235.06-.382l.999-2.558h7.58l.822 2.526c.499 1.442-1.32 1.03-1.32 2.265 0 .617.44.971 1.437.971h4.877c1.03 0 1.41-.44 1.41-.944 0-1.261-1.085-.585-1.851-2.613zM64.19 18.19l3.143-8.08c.059-.234.263-.207.355.028L70.3 18.19zM93.596 6.933c-.235-.644-.468-.912-1.234-.912h-14.19c-.767 0-1 .266-1.235.912-.266.852-.734 2.823-.793 3.733-.059.972.413 1.352.971 1.352 1.086 0 1.262-1.089 2.028-2.676.468-.94 1.116-1.261 2.115-1.261h.88c.824 0 .943.235.943 1.53v13.194c0 1.233-1.53 1.26-1.53 2.26 0 .766.676.944 1.644.944h4.146c.999 0 1.643-.176 1.643-.944 0-1-1.526-1.027-1.526-2.26V9.493c0-1.175.145-1.41.94-1.41h.853c1.057 0 1.701.323 2.142 1.261.793 1.589.944 2.676 2.027 2.676.558 0 1.03-.382.971-1.351-.058-.913-.499-2.882-.793-3.734zm16.575 13.462c-1.089 0-1.265.968-1.968 2.292-.503.913-1.089 1.261-2.146 1.261h-3.498c-.735 0-1.031-.35-1.031-1.175v-5.907h2.441c1.057 0 1.469.413 1.674 1.148.235.762.321 1.324.999 1.324.793 0 1.003-.972 1.003-3.471s-.267-3.495-1.062-3.495c-.675 0-.762.527-.94 1.29-.203.765-.585 1.147-1.674 1.147h-2.441V9.256c0-.82.294-1.175 1.031-1.175h3.057c1.057 0 1.616.558 1.996 1.261.734 1.293.793 2.296 1.85 2.296.559 0 1.117-.472.913-1.502l-.676-3.203c-.145-.675-.472-.912-1.234-.912H97.269c-1 0-1.644.176-1.644.944 0 .967 1.526 1.026 1.526 2.26v13.58c0 1.233-1.525 1.26-1.525 2.26 0 .766.644.944 1.643.944H109.2c.734 0 1.057-.208 1.202-.913l.676-3.202c.235-1.058-.35-1.497-.907-1.497zm20.153 3.494c-.648-.382-1.175-.676-1.529-1.352l-2.705-5.08c1.733-.645 3.878-2.383 3.878-5.671s-3.144-5.763-8.815-5.763h-6.728c-.999 0-1.647.177-1.647.945 0 .967 1.53 1.026 1.53 2.26v13.58c0 1.233-1.53 1.26-1.53 2.26 0 .766.676.944 1.647.944h4.142c.972 0 1.648-.177 1.648-.944 0-1-1.53-1.027-1.53-2.26v-4.556l3.202-.032 2.468 4.732c.413.94-1.03 1.03-1.03 1.969 0 .999.883 1.089 1.823 1.089h4.463c.676 0 1.469-.267 1.469-1.09 0-.557-.35-.761-.762-1.03zm-9.639-7.727h-1.996V9.52c0-.852.235-1.438 1.148-1.438h.499c3.525 0 4.845 2.205 4.845 4.378-.027 2.35-1.674 3.729-4.494 3.702z" opacity=".65"/><path fill="#666" d="M144.79 15.281c2.44-.824 3.498-2.468 3.498-4.377 0-2.527-2.233-4.909-7.462-4.909h-6.379c-.999 0-1.643.176-1.643.94 0 1 1.526 1.03 1.526 2.292v13.58c0 1.234-1.526 1.26-1.526 2.26 0 .766.672.944 1.643.944h7.552c5.462 0 7.403-2.41 7.403-5.584 0-2.85-2.027-4.642-4.614-5.142zm-6.347-5.938c0-.735.176-1.262.971-1.262h1.058c2.173 0 3.556 1.53 3.556 3.467 0 2.292-1.502 3.085-3.615 3.116h-1.969zm2.939 14.604h-1.909c-.852 0-1.03-.527-1.03-1.262V16.72h2.027c2.732 0 4.345 1.058 4.345 3.792 0 2.143-1.615 3.436-3.435 3.436zm20.096-18.365c-6.379 0-10.46 4.437-10.46 10.375 0 5.939 4.025 10.489 10.46 10.489s10.226-4.35 10.226-10.312c0-5.44-3.261-10.554-10.226-10.554zm1.058 18.72c-4.142 0-6.818-5.908-6.818-10.52 0-3.82 1.734-6.053 4.587-6.053 4.025 0 6.669 5.821 6.669 10.547 0 3.702-1.675 6.025-4.436 6.025z"/><path fill="#666" d="m188.717 22.892-5.348-7.61 4.822-6.556c.675-.967 1.76-.879 1.76-1.82 0-.557-.382-.883-1.234-.883h-3.261c-.851 0-1.202.208-1.202.766 0 .5.323.676.644.88.558.382.999.5.5 1.351l-3.261 4.495-3.144-4.463c-.203-.294-.262-.531-.262-.708 0-.526.734-.675.734-1.351 0-.617-.413-.88-1.437-.88h-4.763c-1.058 0-1.469.294-1.469.972 0 1.175 1.383.94 2.086 1.851l5.111 7.255-5.579 7.114c-.707.971-1.792.913-1.792 1.85 0 .532.323.853 1.233.853h3.289c.824 0 1.206-.208 1.206-.766 0-.5-.327-.676-.648-.88-.558-.381-.999-.585-.499-1.35l4.024-5.054 3.733 5.318c.086.176.176.327.176.472 0 .472-.707.558-.707 1.292 0 .617.414.972 1.352.972h4.732c1.088 0 1.41-.44 1.41-1 0-1.292-1.352-.912-2.206-2.118z"/><path fill="#1f8152" d="M17.955 14.386V8.724a1.615 1.615 0 0 0-3.231 0v14.552a1.616 1.616 0 0 0 3.231 0v-5.658h8.78a4.45 4.45 0 0 1 4.444 4.448v1.55a4.446 4.446 0 0 1-4.444 4.44H11.519c-3.787 0-6.868-3.081-6.868-6.866V10.82c0-3.785 3.08-6.874 6.868-6.874h15.216c2.452 0 4.444 2 4.444 4.448V9.94a4.45 4.45 0 0 1-4.444 4.448h-8.78z"/><path fill="#1f8152" d="M26.735 14.387a4.45 4.45 0 0 0 4.444-4.449V8.393a4.453 4.453 0 0 0-4.444-4.448H11.519c-3.788 0-6.868 3.089-6.868 6.873v10.371c0 3.784 3.08 6.865 6.868 6.865h15.216a4.446 4.446 0 0 0 4.444-4.44v-1.55a4.45 4.45 0 0 0-4.444-4.448h-8.78v5.66a1.616 1.616 0 0 1-3.232 0V8.721a1.615 1.615 0 0 1 3.232 0v5.663h8.78zM16.34 6.73c-1.1 0-2 .891-2 1.992v14.553c0 1.1.901 1.996 2 1.996s2-.895 2-1.996V18h8.394a4.064 4.064 0 0 1 4.064 4.065v1.549c0 2.237-1.82 4.06-4.064 4.06H11.519a6.49 6.49 0 0 1-6.484-6.485V10.818c0-3.577 2.908-6.49 6.484-6.49h15.216a4.067 4.067 0 0 1 4.064 4.065v1.545a4.064 4.064 0 0 1-4.064 4.065H18.34V8.724a2 2 0 0 0-2-1.992zm10.394 7.657a4.45 4.45 0 0 0 4.444-4.449V8.393a4.453 4.453 0 0 0-4.444-4.448H11.519c-3.788 0-6.868 3.089-6.868 6.873v10.371c0 3.784 3.08 6.865 6.868 6.865h15.216a4.446 4.446 0 0 0 4.444-4.44v-1.55a4.45 4.45 0 0 0-4.444-4.448h-8.78v5.66a1.616 1.616 0 0 1-3.232 0V8.721a1.615 1.615 0 0 1 3.232 0v5.663h8.78zM16.34 6.73c-1.1 0-2 .891-2 1.992v14.553c0 1.1.901 1.996 2 1.996s2-.895 2-1.996V18h8.394a4.064 4.064 0 0 1 4.064 4.065v1.549c0 2.237-1.82 4.06-4.064 4.06H11.519a6.49 6.49 0 0 1-6.484-6.485V10.818c0-3.577 2.908-6.49 6.484-6.49h15.216a4.067 4.067 0 0 1 4.064 4.065v1.545a4.064 4.064 0 0 1-4.064 4.065H18.34V8.724a2 2 0 0 0-2-1.992zM34.8 9.936V8.391q-.002-.21-.016-.417A8.037 8.037 0 0 0 27.152.337q-.204-.007-.417-.008H11.519C5.738.33 1.035 5.034 1.035 10.814v10.371c0 5.782 4.705 10.481 10.484 10.481h15.216q.21 0 .413-.012a8.03 8.03 0 0 0 7.636-7.633c.008-.137.016-.27.016-.413v-1.55a8.03 8.03 0 0 0-2.76-6.067 8 8 0 0 0 2.76-6.06zm-3.36 6.06a7.68 7.68 0 0 1 2.97 6.069v1.549q-.001.194-.008.39c-.011.121-.015.239-.027.366a7.7 7.7 0 0 1-6.52 6.838c-.239.035-.48.062-.723.07a7 7 0 0 1-.397.012h-15c-5.698 0-10.32-4.622-10.32-10.32v-9.94C1.415 5.331 6.037.716 11.735.716h15c.133 0 .262 0 .397.008.118.008.243.015.367.027a7.69 7.69 0 0 1 6.876 6.881c.012.121.016.239.027.362.004.134.008.263.008.398v1.545a7.65 7.65 0 0 1-2.97 6.06zM26.734 3.944H11.519c-3.788 0-6.868 3.089-6.868 6.873v10.371c0 3.784 3.08 6.865 6.868 6.865h15.216a4.446 4.446 0 0 0 4.444-4.44v-1.55a4.45 4.45 0 0 0-4.444-4.448h-8.78v5.66a1.616 1.616 0 0 1-3.232 0V8.72a1.615 1.615 0 0 1 3.232 0v5.663h8.78a4.45 4.45 0 0 0 4.444-4.449V8.39a4.453 4.453 0 0 0-4.444-4.448zm4.064 5.993a4.064 4.064 0 0 1-4.064 4.065H18.34v-5.28a2 2 0 0 0-2-1.992c-1.099 0-2 .891-2 1.992v14.553c0 1.1.901 1.996 2 1.996s2-.895 2-1.996V18h8.394a4.064 4.064 0 0 1 4.064 4.065v1.549c0 2.237-1.82 4.06-4.064 4.06H11.519a6.49 6.49 0 0 1-6.484-6.485V10.818c0-3.577 2.908-6.49 6.484-6.49h15.216a4.067 4.067 0 0 1 4.064 4.065v1.545zm-4.064 4.449a4.45 4.45 0 0 0 4.444-4.449V8.391a4.453 4.453 0 0 0-4.444-4.448H11.519c-3.788 0-6.868 3.089-6.868 6.873v10.371c0 3.784 3.08 6.865 6.868 6.865h15.216a4.446 4.446 0 0 0 4.444-4.44v-1.55a4.45 4.45 0 0 0-4.444-4.448h-8.78v5.66a1.616 1.616 0 0 1-3.232 0V8.72a1.615 1.615 0 0 1 3.232 0v5.663h8.78zM16.34 6.728c-1.1 0-2 .891-2 1.992v14.553c0 1.1.901 1.996 2 1.996s2-.895 2-1.996v-5.275h8.394a4.064 4.064 0 0 1 4.064 4.065v1.549c0 2.237-1.82 4.06-4.064 4.06H11.519a6.49 6.49 0 0 1-6.484-6.485V10.816c0-3.577 2.908-6.49 6.484-6.49h15.216a4.067 4.067 0 0 1 4.064 4.065v1.545a4.064 4.064 0 0 1-4.064 4.065H18.34V8.722a2 2 0 0 0-2-1.992zm10.394 7.657a4.45 4.45 0 0 0 4.444-4.449V8.391a4.453 4.453 0 0 0-4.444-4.448H11.519c-3.788 0-6.868 3.089-6.868 6.873v10.371c0 3.784 3.08 6.865 6.868 6.865h15.216a4.446 4.446 0 0 0 4.444-4.44v-1.55a4.45 4.45 0 0 0-4.444-4.448h-8.78v5.66a1.616 1.616 0 0 1-3.232 0V8.72a1.615 1.615 0 0 1 3.232 0v5.663h8.78zM16.34 6.728c-1.1 0-2 .891-2 1.992v14.553c0 1.1.901 1.996 2 1.996s2-.895 2-1.996v-5.275h8.394a4.064 4.064 0 0 1 4.064 4.065v1.549c0 2.237-1.82 4.06-4.064 4.06H11.519a6.49 6.49 0 0 1-6.484-6.485V10.816c0-3.577 2.908-6.49 6.484-6.49h15.216a4.067 4.067 0 0 1 4.064 4.065v1.545a4.064 4.064 0 0 1-4.064 4.065H18.34V8.722a2 2 0 0 0-2-1.992z"/></svg>