<svg xmlns="http://www.w3.org/2000/svg" width="153" height="47" fill="none" viewBox="0 0 153 47"><path fill="#4f86db" d="m26.656 8.998.797 1.093.044-.05c-.268-.36-.546-.711-.841-1.043M2.886 3.187v.536l.011-.536zm20.845 35.221c-.377-.12-.782-.236-1.203-.36-.99-.285-2.1-.596-3.302-.913C14.52 35.893 8.37 34.51 2.23 33.865l.143-6.435.021-.974.044-1.973v-.003l.448-20.757.011-.536.006-.164a45 45 0 0 1 6.614-.482c2.903-.005 6.27.294 9.354 1.257 1.542.475 3.012 1.12 4.324 1.968 1.318.847 2.482 1.893 3.428 3.186l.032.046.798 1.093.044-.05.853-1.037q.278-.347.596-.668a16 16 0 0 0-.558-.672.4.4 0 0 0-.065-.083 18 18 0 0 0-.831-.89c-.946-1.067-1.957-2.023-3.116-2.767-2.269-1.455-4.85-2.34-7.418-2.87-2.575-.53-5.15-.7-7.44-.7C5.46.354 2.306.896 1.721 1a1 1 0 0 1-.098.023l-.864.161L.738 2.19.273 23.74l-.032 1.449L0 35.856l1.017.086c6.281.573 12.759 2.011 17.646 3.308 2.45.645 4.5 1.256 5.937 1.706.716.224 1.28.409 1.667.536q.29.099.438.147l.142.048.36.127.361-.127.142-.048a132 132 0 0 1 1.76-.574c-.442-.09-.885-.193-1.316-.323a12.9 12.9 0 0 1-4.423-2.334m30.657-3.575L53.644.288l-.95-.104C52.66.18 51.003 0 48.483 0c-2.898 0-6.937.24-10.961 1.294-2.017.524-4.029 1.259-5.893 2.285a18 18 0 0 0-2.504 1.656c.263.268.536.554.815.876.06.06.11.124.164.19.159.188.317.372.465.571.661-.51 1.372-.968 2.115-1.38 2.498-1.372 5.407-2.207 8.21-2.688 2.806-.487 5.506-.617 7.589-.617a48 48 0 0 1 2.903.086c.038 0 .076.006.114.006l.678 31.586c-2.94.305-5.882.786-8.665 1.34-.267.054-.535.103-.803.158a135 135 0 0 0-2.104.45l-.356.08a144 144 0 0 0-11.688 3.166q-.269.084-.497.16c.164.057.328.114.497.16 1.05.32 2.16.488 3.313.488.968 0 1.919-.11 2.821-.338l.054-.017a189 189 0 0 1 1.93-.507 129 129 0 0 1 3.652-.888l1.022-.227c3.767-.833 7.944-1.576 12.044-1.948l1.01-.086z"/><path fill="#4f86db" d="M.734 2.193v17.556c0 1.8.637 3.446 1.7 4.731v.006a7.44 7.44 0 0 0 3.965 2.48 7.4 7.4 0 0 0 1.778.22 7.45 7.45 0 0 0 3.152-.7 7.44 7.44 0 0 0 4.288-6.737V8.604H13.43v11.145q0 .297-.035.576a5.2 5.2 0 0 1-1.507 3.138 5.22 5.22 0 0 1-3.711 1.536 5.25 5.25 0 0 1-3.72-1.536 5.23 5.23 0 0 1-1.536-3.714L2.884 3.723v-.536h.011l.006-.164a45 45 0 0 1 6.613-.481c2.904-.006 6.273.293 9.356 1.256 1.541.475 3.01 1.12 4.322 1.968 1.32.847 2.483 1.893 3.428 3.187l.032.046c.297.331.576.683.842 1.043a16.77 16.77 0 0 1 3.287 10.01v9.061a3.16 3.16 0 0 0 3.164 3.167 3.154 3.154 0 0 0 3.143-2.824v-.003a2 2 0 0 0 .024-.34v-8.459c0-.182.02-.358.069-.522.089-.343.273-.654.521-.902a2.02 2.02 0 0 1 2.853 0q.056.06.103.116h.006c.245.29.41.645.458 1.043q.018.132.018.265v7.756a9.24 9.24 0 0 1-2.712 6.555 9.23 9.23 0 0 1-6.555 2.715 9.25 9.25 0 0 1-6.555-2.715 9.24 9.24 0 0 1-2.711-6.555v-2.23H20.42v2.23c0 4.99 3.19 9.238 7.644 10.808q.246.087.496.164c1.051.318 2.16.485 3.313.485.968 0 1.92-.11 2.821-.337l.055-.018a11.4 11.4 0 0 0 5.855-3.7 11.37 11.37 0 0 0 2.723-7.402v-7.756c0-.156-.006-.303-.03-.45a4 4 0 0 0-.261-1.089 4.202 4.202 0 0 0-8.111 1.539v8.46a.979.979 0 1 1-1.957 0v-9.062a18.98 18.98 0 0 0-4.025-11.716q-.27-.344-.556-.671a1 1 0 0 0-.066-.084q-.4-.456-.83-.89A18.96 18.96 0 0 0 13.917 1H1.72z"/><path fill="#4f86db" d="m36.031 14.335.007-.003c.164-.075 3.503-1.533 8.027-1.53 1.432 0 2.982.144 4.59.521l.25-1.063a21 21 0 0 0-4.84-.553c-4.912.003-8.444 1.614-8.487 1.63zm1.159 5.797q-.072.248-.07.522v.654c-.646.219-1.028.383-1.083.412h-.005l-.454-.997c.016-.012.601-.274 1.613-.59m11.706-.488-.246 1.066a20.3 20.3 0 0 0-4.592-.524q-.385 0-.76.017a21 21 0 0 0-2.176.184 2 2 0 0 0-.459-1.043c.733-.11 1.53-.19 2.372-.23q.5-.02 1.023-.02c1.503 0 3.138.152 4.838.55M37.12 27.546v1.902c-.646.218-1.028.383-1.083.411l-.005.003-.454-1.749c.016-.008.574-.262 1.542-.567m11.778-.513-.247 1.066a20 20 0 0 0-4.591-.527q-.37 0-.733.017c-.77.023-1.503.086-2.186.181v-1.1a22 22 0 0 1 2.186-.173q.362-.017.733-.017c1.503 0 3.137.152 4.838.553m-37.568-.548c-.957.447-2.029.7-3.155.7a7.4 7.4 0 0 1-1.777-.219 21 21 0 0 1 4.931-.48M24.49 14.66c0 .908-.734 1.64-1.64 1.64s-1.64-.732-1.64-1.64a1.64 1.64 0 0 1 3.28 0m48.874-1.25v3.696h4.965v2.345h-4.965v3.911h5.599v2.406h-8.557V11h8.557v2.41zm10.766 9.987h4.859v2.345h-7.817V11h2.957zm9.757-9.987v3.696h4.965v2.345h-4.965v3.911h5.599v2.406H90.93V11h8.555v2.41zm11.07 3.696V13.41h5.599V11H102v14.767h2.957v-6.315h4.965v-2.346zm15.19 3.486-2.134-6.166-2.134 6.166zm.802 2.365h-5.873l-.971 2.81H111L116.302 11h3.444l5.303 14.767h-3.128zm18.789 2.811h-2.959l-6.697-10.117v10.116h-2.957V11h2.957l6.697 10.142V11h2.959zM152.573 11v2.385h-3.929v12.357h-2.957V13.385h-3.929V11z"/><rect width="26" height="13" x="14" y="34" fill="#eab308" rx="6.5"/><path fill="#000" d="M19.374 43.03v-.642h1.523q.44 0 .68-.247.246-.254.246-.672 0-.426-.239-.664-.238-.247-.687-.247h-1.523v-.478h1.419q.522 0 .918.127.404.127.628.426.231.29.231.799v.104q0 .478-.194.814-.195.33-.59.508-.396.172-.993.172zm-.582 0v-5.511h.731v5.51zm.582-2.606v-.478h1.322q.462 0 .68-.247a.94.94 0 0 0 .223-.642q0-.396-.224-.642-.215-.255-.68-.254h-1.321v-.642h1.195q.896 0 1.336.38.441.374.441 1.084v.104q0 .5-.224.8-.224.29-.627.417-.396.12-.926.12zm6.054 2.71q-.523 0-.903-.179a1.75 1.75 0 0 1-.62-.47q-.24-.299-.358-.665a2.5 2.5 0 0 1-.112-.747v-.134q0-.388.112-.754.12-.366.358-.657.239-.3.605-.47a2 2 0 0 1 .874-.18q.65 0 1.067.284.426.276.628.717.209.44.209.94v.322h-3.54v-.538h3.017l-.164.291q0-.425-.135-.732a1.05 1.05 0 0 0-.403-.485q-.27-.171-.68-.172-.425 0-.709.194-.276.195-.418.53a2.1 2.1 0 0 0-.134.777q0 .425.134.77.142.335.433.537.29.195.74.194.47 0 .761-.209.3-.21.358-.485h.673q-.083.41-.329.71-.245.297-.62.455-.373.156-.844.156m4.43-.09q-.447 0-.776-.126a1 1 0 0 1-.5-.433q-.172-.314-.172-.844v-3.838h.687v3.928q0 .32.172.5.18.172.5.172h.702v.642zm-2.135-3.494v-.538h2.748v.538zm6.16 3.45v-1.195h-.12v-1.381q0-.41-.217-.62-.209-.21-.62-.21-.231 0-.477.008l-.47.015q-.225.008-.39.023v-.628q.165-.015.344-.022.188-.015.381-.015.195-.007.374-.007.612 0 1 .149.389.142.575.47.187.33.187.889V43zm-1.307.105q-.45 0-.777-.15a1.2 1.2 0 0 1-.5-.448 1.36 1.36 0 0 1-.172-.702q0-.425.187-.71.194-.282.56-.425.366-.15.88-.15h1.084v.538h-1.113q-.433 0-.665.21a.7.7 0 0 0-.231.537q0 .33.231.53.232.202.665.202.255 0 .485-.09a.86.86 0 0 0 .381-.313q.157-.225.172-.612l.194.283a1.7 1.7 0 0 1-.209.717q-.165.285-.463.433-.29.15-.71.15"/></svg>