<svg xmlns="http://www.w3.org/2000/svg" width="233" height="48" fill="none" viewBox="0 0 233 48"><path fill="#2c3e50" d="M62.86 8.863q-3.37-3.884-9.078-3.886H40.13a.78.78 0 0 0-.774.65l-.525 2.975a16.7 16.7 0 0 0-2.791-2.047c-2.718-1.595-5.945-2.392-9.672-2.392q-8.478 0-14.784 5.432-6.305 5.438-7.715 13.86c-.944 5.725.2 10.551 3.422 14.482s7.793 5.896 13.697 5.896q7.001 0 12.22-3.32l-.277 1.583c-.085.48.285.92.773.92h8.118a.78.78 0 0 0 .773-.648l1.9-10.767h5.002q6.627 0 10.844-3.503 4.212-3.504 5.026-9.266.87-6.085-2.499-9.973zm-21.327 16.15c-.875 5.355-3.15 9.604-6.824 12.737q-5.506 4.7-13.546 4.7c-5.359 0-9.737-1.827-12.736-5.486q-4.5-5.482-3.182-13.473 1.311-7.831 7.177-12.887 5.866-5.054 13.75-5.054 5.206-.002 8.997 2.226 3.792 2.222 5.815 6.116l-8.289 4.448q-2.226-3.943-7.43-3.943-4.145-.001-7.203 2.653T14.245 24q-.758 4.249 1.364 7.052c1.416 1.872 3.54 2.803 6.368 2.803q6.523 0 9.151-4.65h-8.187l1.364-7.785h17.843l-.606 3.59zm13.746-3.857a3.78 3.78 0 0 1-2.739 1.188h-6.054a.288.288 0 0 1-.277-.346l1.257-7.508a.286.286 0 0 1 .277-.244h4.797c2.14 0 3.874 1.811 3.874 4.049a4.13 4.13 0 0 1-1.135 2.86M72.15 18.36c0-4.175 2.963-7.56 7.406-7.56 4.444 0 6.149 2.286 6.149 3.926 0 .786-.582 1.795-1.84 1.795-2.872 0-2.4-3.793-5.05-3.793-1.525 0-2.335 1.233-2.335 3.703 0 4.509 2.063 7.406 4.891 7.406.74 0 1.213-.114 1.526-.268l-.02-2.267c0-1.054-1.323-.81-1.323-1.75 0-.402.224-.74.74-.74l4.107.02c.492 0 .696.313.696.72 0 .944-1.168.696-1.168 1.774l-.02 2.133c0 .492-.249.989-.9 1.57-1.078.945-2.714 1.685-4.936 1.685-4.464 0-7.923-2.962-7.923-8.346zm16.448 1.75v-6.263c0-.988-.989-1.033-.989-1.884 0-.74.607-.854 1.368-.854h3.344c.761 0 1.368.114 1.368.854 0 .855-.99.9-.99 1.884v6.755c0 2.336.652 4.13 3.098 4.13s3.051-1.863 3.051-4.13v-6.978c0-.9-1.143-.944-1.143-1.73 0-.671.627-.785 1.347-.785h1.55c.741 0 1.347.114 1.347.785 0 .786-1.143.83-1.143 1.73v6.486c0 2.242-.358 6.551-5.811 6.551-5.97 0-6.397-4.354-6.397-6.551m26.344 3.052-.582 2.56c-.135.516-.383.65-1.079.65h-8.818c-.83 0-1.501-.09-1.501-.854 0-.855 1.078-.9 1.078-1.864v-9.807c0-.988-1.078-1.033-1.078-1.884 0-.74.671-.854 1.501-.854h8.212c.671 0 .944.134 1.078.671l.562 2.56c.203.875-.313 1.257-.761 1.257-.81 0-.944-.806-1.412-1.64-.293-.517-.716-.92-1.502-.92h-1.774c-.537 0-.72.224-.72.9v3.792h1.412c.785 0 1.054-.293 1.233-.72.179-.472.269-.854.81-.854.582 0 .899.671.899 2.535 0 1.863-.293 2.56-.875 2.56-.517 0-.606-.428-.83-.9-.179-.427-.492-.696-1.233-.696h-1.412v3.907c0 .65.179.899.72.899h2.063c.761 0 1.258-.204 1.661-.92.447-.854.695-1.64 1.57-1.64.472 0 .965.358.786 1.258zm.74.203c0-1.078.72-1.595 1.481-1.595 2.197 0 2.242 3.007 4.443 3.007 1.054 0 1.954-.472 1.954-1.64 0-1.257-1.099-1.819-3.39-2.962-2.804-1.412-3.862-2.893-3.862-4.87 0-2.715 2.267-4.534 5.722-4.534 3.816 0 5.676 1.66 5.676 3.255 0 .875-.651 1.482-1.457 1.482-2.335 0-2.287-2.828-4.15-2.828-.855 0-1.705.447-1.705 1.48 0 1.144.83 2.064 3.345 3.166 2.47 1.079 4.175 2.267 4.175 4.827s-1.974 4.533-6.173 4.533c-3.569 0-6.059-1.64-6.059-3.32m16.582 2.152c0-.855 1.078-.9 1.078-1.864v-9.583c0-.83-.134-1.033-.696-1.033h-.358c-.74 0-1.278.134-1.64.92-.537 1.167-.785 2.132-1.66 2.132-.472 0-.875-.314-.854-1.124.02-.65.492-2.604.716-3.186.203-.516.403-.671 1.078-.671h10.93c.671 0 .875.159 1.078.671.224.582.696 2.535.72 3.186.021.81-.382 1.124-.854 1.124-.875 0-1.123-.965-1.66-2.133-.358-.785-.9-.92-1.661-.92h-.337c-.562 0-.696.18-.696.99v9.627c0 .965 1.054 1.01 1.054 1.864 0 .76-.672.854-1.481.854h-3.256c-.83 0-1.501-.09-1.501-.854"/><path fill="#00b7a8" d="M148.443 21.143v2.515c0 .964 1.054 1.01 1.054 1.864 0 .76-.671.854-1.481.854h-3.256c-.809 0-1.481-.09-1.481-.854 0-.855 1.054-.9 1.054-1.864v-9.807c0-.988-1.078-1.033-1.078-1.884 0-.74.671-.854 1.501-.854h4.916c3.837 0 6.755 1.66 6.755 4.757 0 3.906-3.276 5.273-7.382 5.273h-.606zm0-7.182v5.319h.448c1.729 0 3.096-.875 3.096-2.918 0-1.884-1.098-3.32-2.624-3.32h-.269c-.582 0-.651.402-.651.92m8.526 4.732c0-4.598 3.32-7.923 8.191-7.923 5.721 0 8.033 4.265 8.033 8.077 0 4.668-3.39 7.834-8.192 7.834s-8.032-3.32-8.032-7.988m11.825 2.356c0-3.076-1.66-8.301-4.623-8.301-1.774 0-2.803 1.412-2.803 3.747 0 2.938 1.818 8.236 4.712 8.236 1.749 0 2.714-1.546 2.714-3.678zm5.383 4.468c0-.855 1.054-.9 1.054-1.864v-9.807c0-.988-1.079-1.033-1.079-1.884 0-.74.672-.854 1.502-.854h5.249c4.22 0 6.8 1.705 6.8 4.533 0 2.38-1.302 3.658-2.56 4.24l2.018 3.882c.18.383.562.562.945.806.337.203.626.402.626.875 0 .606-.517.92-1.123.92h-4.061c-.83 0-1.412-.135-1.412-.9s1.034-.855.671-1.66l-1.595-3.186-1.884.02v3.007c0 .964 1.054 1.01 1.054 1.864 0 .76-.671.854-1.481.854h-3.255c-.81 0-1.481-.09-1.481-.854zm9.086-9.514c.025-1.457-.944-2.962-2.828-2.962h-.313c-.72 0-.786.517-.786 1.168v4.488h.965c1.794.024 2.962-.989 2.962-2.694m9.18 9.514c0-.855 1.079-.9 1.079-1.864v-9.583c0-.83-.135-1.033-.696-1.033h-.358c-.741 0-1.278.134-1.64.92-.537 1.167-.785 2.132-1.66 2.132-.472 0-.875-.314-.855-1.124.021-.65.493-2.604.716-3.186.204-.516.403-.671 1.079-.671h10.93c.671 0 .874.159 1.078.671.224.582.696 2.535.72 3.186.02.81-.382 1.124-.854 1.124-.875 0-1.123-.965-1.661-2.133-.358-.785-.899-.92-1.66-.92h-.338c-.561 0-.695.18-.695.99v9.627c0 .965 1.054 1.01 1.054 1.864 0 .76-.672.854-1.482.854h-3.255c-.83 0-1.502-.09-1.502-.854m23.631 0c0 .427-.359.83-1.213.83h-4.24c-.83 0-1.188-.293-1.188-.855 0-1.098 1.347-.785 1.078-1.794l-.472-1.57h-5.363l-.607 1.704c-.02.09-.02.159-.02.248 0 .741 1.168.627 1.168 1.502 0 .517-.313.785-1.123.785h-2.535c-.672 0-1.054-.337-1.054-.875 0-.92 1.257-.92 1.481-1.64l4.016-10.885c.651-1.595 1.034-2.197 2.828-2.197 1.323 0 1.84.492 2.243 1.73l3.658 10.885c.582 1.595 1.347 1.053 1.347 2.132zm-6.621-5.319-1.705-5.7c-.069-.204-.248-.224-.313-.02l-2.063 5.72h4.085zm6.978 5.319c0-.855 1.054-.9 1.054-1.864v-9.807c0-.988-1.079-1.033-1.079-1.884 0-.74.672-.854 1.502-.854h3.255c.806 0 1.481.114 1.481.854 0 .855-1.054.9-1.054 1.884v9.29c0 .99.114 1.302.81 1.323h1.998c.765 0 1.257-.204 1.66-.92.448-.854.696-1.819 1.571-1.819.472 0 .875.314.855 1.123-.045.651-.428 2.267-.651 2.873-.204.493-.383.651-1.079.651h-8.842c-.83 0-1.481-.09-1.481-.854z"/><path fill="#979797" d="M72.554 31.439h.533l2.23 4.769 2.217-4.77h.542v5.665h-.55v-4.375l-2.018 4.379h-.374l-2.015-4.379v4.379h-.553v-5.668zm9.362 0h.769l1.953 5.668h-.602l-.476-1.376h-2.52l-.472 1.376h-.602l1.953-5.668zm1.453 3.751-1.075-3.096-1.066 3.096zm3.158-3.751h.578v2.677l2.588-2.677h.74l-2.64 2.734 2.856 2.934h-.756l-2.788-2.836v2.836h-.578zm5.86 0h3.544v.553h-2.962v1.961h2.49v.554h-2.49v2.042h2.962v.554h-3.544v-5.669zm8.426 0h3.545v.553h-2.963v1.961h2.491v.554h-2.491v2.042h2.963v.554h-3.545v-5.669zm5.161 0h.602l1.729 5.013 1.742-5.013h.602l-1.953 5.668h-.769zm6.449 0h3.544v.553h-2.962v1.961h2.49v.554h-2.49v2.042h2.962v.554h-3.544v-5.669zm5.669 0h2.189c.11 0 .256.008.399.032.887.138 1.383.842 1.383 1.73 0 .744-.35 1.358-.988 1.615l1.119 2.295h-.664l-1.041-2.153h-1.811v2.153h-.578v-5.668zm2.173 2.962c.093 0 .232-.008.35-.037.582-.122.85-.643.85-1.168s-.268-1.045-.85-1.172a2 2 0 0 0-.35-.032h-1.595V34.4zm5.236.334-1.9-3.296h.667l1.522 2.632 1.514-2.632h.667l-1.892 3.295v2.373h-.582v-2.373zm6.364.854.59-.098c.187.737.843 1.176 1.689 1.176s1.457-.419 1.457-1.086c0-.582-.476-.798-.871-.916l-1.436-.427c-.692-.203-1.209-.598-1.209-1.36 0-.955.818-1.558 1.937-1.553 1.135 0 1.953.634 2.136 1.652l-.606.11c-.114-.737-.745-1.205-1.534-1.213-.761 0-1.323.419-1.323.98 0 .562.566.77 1.009.896l1.111.325c.46.13 1.38.411 1.38 1.485s-.887 1.665-2.071 1.665-2.063-.627-2.255-1.632zm7.833-3.597h-1.981v-.553h4.537v.553h-1.982v5.115h-.578v-5.115zm5.775-.553h.769l1.953 5.668h-.602l-.476-1.376h-2.519l-.472 1.376h-.603l1.954-5.668zm1.452 3.751-1.074-3.096-1.066 3.096zm4.042-.455-1.901-3.296h.668l1.522 2.632 1.513-2.632h.668l-1.892 3.295v2.373h-.582v-2.373zm6.363.854.59-.098c.187.737.842 1.176 1.689 1.176.846 0 1.457-.419 1.457-1.086 0-.582-.477-.798-.871-.916l-1.437-.427c-.691-.203-1.208-.598-1.208-1.36 0-.955.818-1.558 1.937-1.553 1.135 0 1.953.634 2.136 1.652l-.606.11c-.114-.737-.745-1.205-1.534-1.213-.761 0-1.323.419-1.323.98 0 .562.566.77 1.009.896l1.111.325c.46.13 1.38.411 1.38 1.485s-.887 1.665-2.072 1.665c-1.184 0-2.063-.627-2.254-1.632zm6.327-4.15h.533l2.23 4.769 2.218-4.77h.537v5.665h-.549v-4.375l-2.019 4.379h-.374l-2.014-4.379v4.379h-.554v-5.668zm9.36 0h.77l1.953 5.668h-.602l-.477-1.376h-2.518l-.472 1.376h-.603l1.954-5.668zm1.453 3.751-1.074-3.096-1.066 3.096zm3.162-3.751h2.189c.11 0 .256.008.399.032.887.138 1.383.842 1.383 1.73 0 .744-.35 1.358-.988 1.615l1.119 2.295h-.664l-1.041-2.153h-1.811v2.153h-.578v-5.668zm2.173 2.962c.093 0 .232-.008.35-.037.582-.122.85-.643.85-1.168s-.268-1.045-.85-1.172a2 2 0 0 0-.35-.032h-1.595V34.4zm5.485-2.409h-1.981v-.553h4.537v.553h-1.982v5.115h-.578v-5.115zm4.37-.553h3.544v.553h-2.962v1.961h2.49v.554h-2.49v2.042h2.962v.554h-3.544v-5.669zm5.673 0h2.189c.11 0 .257.008.399.032.887.138 1.384.842 1.384 1.73 0 .744-.35 1.358-.989 1.615l1.119 2.295h-.664l-1.041-2.153h-1.811v2.153h-.578v-5.668zm2.173 2.962c.094 0 .232-.008.35-.037.582-.122.85-.643.85-1.168s-.268-1.045-.85-1.172a2 2 0 0 0-.35-.032h-1.595V34.4z"/></svg>